<?xml version="1.0" encoding="UTF-8" standalone="no"?>
<!DOCTYPE svg PUBLIC "-//W3C//DTD SVG 1.1//EN" "http://www.w3.org/Graphics/SVG/1.1/DTD/svg11.dtd">
<svg width="100%" height="100%" viewBox="0 0 120 100" version="1.1" xmlns="http://www.w3.org/2000/svg" xmlns:xlink="http://www.w3.org/1999/xlink" xml:space="preserve" xmlns:serif="http://www.serif.com/" style="fill-rule:evenodd;clip-rule:evenodd;stroke-linejoin:round;stroke-miterlimit:2;">
    <g transform="matrix(1.01642,0,0,1.01642,-75.5676,-54.9147)">
        <circle cx="131.708" cy="103.618" r="45.657" style="fill:rgb(255,255,1);"/>
    </g>
    <g transform="matrix(1,0,0,1,-111.216,-55.7873)">
        <circle cx="169.498" cy="105.511" r="38.022" style="fill:rgb(122,122,0);"/>
    </g>
    <g transform="matrix(-0.701564,0.555751,-0.482288,-0.608826,310.176,83.5235)">
        <path d="M199.84,205.84C206.121,205.84 213.901,205.145 218.685,205.84C220.917,206.165 214.505,224.512 214.261,231.752C214.062,237.675 218.953,239.93 217.222,249.283C215.877,256.557 208.359,278.661 206.008,278.661C204.96,278.661 203.553,277.654 203.111,271.189C202.561,263.14 205.696,252.744 203.111,247.182L190.23,231.752L149.047,232.7L155.102,205.84L199.84,205.84Z" style="fill:rgb(255,255,1);"/>
    </g>
    <g transform="matrix(-0.701564,0.555751,-0.482288,-0.608826,308.534,84.8242)">
        <path d="M226.529,205.84C225.263,203.553 218.412,204.218 218.685,205.84C219.114,208.385 214.505,224.512 214.261,231.752C214.062,237.675 218.953,239.93 217.222,249.283C215.877,256.557 208.359,278.661 206.008,278.661C204.96,278.661 210.434,280.212 211.206,278.661C213.64,273.765 219.37,257.101 220.616,249.283C221.542,243.477 220.831,239.546 218.685,231.752C218.02,229.336 219.309,226.354 220.616,224.398C221.923,222.441 225.784,222.352 226.529,220.015C227.514,216.922 227.836,208.203 226.529,205.84Z" style="fill:rgb(255,255,1);"/>
    </g>
</svg>
