<?xml version="1.0" encoding="UTF-8" standalone="no"?>
<!DOCTYPE svg PUBLIC "-//W3C//DTD SVG 1.1//EN" "http://www.w3.org/Graphics/SVG/1.1/DTD/svg11.dtd">
<svg width="100%" height="100%" viewBox="0 0 340 281" version="1.1" xmlns="http://www.w3.org/2000/svg" xmlns:xlink="http://www.w3.org/1999/xlink" xml:space="preserve" xmlns:serif="http://www.serif.com/" style="fill-rule:evenodd;clip-rule:evenodd;stroke-linecap:round;stroke-linejoin:round;stroke-miterlimit:1.5;">
    <g transform="matrix(-1.59604,-1.95459e-16,6.92641e-17,-0.565584,489.836,283.647)">
        <path d="M242.064,179.802L139.384,179.802C134.181,168.792 131.442,156.303 131.442,143.59C131.442,120.545 134.509,95.975 148.598,87.792C158.948,81.782 178.084,89.232 191.941,89.232C207.095,89.232 223.274,77.979 233.479,85.264C245.308,93.707 250.006,122.131 250.006,143.59C250.006,156.303 247.267,168.792 242.064,179.802Z" style="fill:rgb(226,243,241);"/>
        <path d="M242.064,179.802L139.384,179.802C134.181,168.792 131.442,156.303 131.442,143.59C131.442,120.545 134.509,95.975 148.598,87.792C158.948,81.782 178.084,89.232 191.941,89.232C207.095,89.232 223.274,77.979 233.479,85.264C245.308,93.707 250.006,122.131 250.006,143.59C250.006,156.303 247.267,168.792 242.064,179.802ZM240.322,165.657C243.238,158.742 244.994,151.466 244.994,143.59C244.994,127.124 241.327,105.455 232.25,98.977C228.61,96.378 224.114,96.632 219.169,97.623C210.74,99.312 201.153,103.377 191.941,103.377C178.407,103.377 159.717,95.776 149.608,101.647C144.181,104.798 140.771,110.568 138.823,118.307C136.921,125.87 136.454,134.916 136.454,143.59C136.454,151.466 138.21,158.741 141.126,165.658L240.322,165.657Z"/>
    </g>
    <g transform="matrix(2.69734,-2.65544e-16,2.65544e-16,-4.86568,-308.74,922.596)">
        <path d="M168.418,156.434C160.047,156.434 153.25,160.201 153.25,164.842C153.25,169.483 160.047,173.251 168.418,173.251C176.79,173.251 183.586,169.483 183.586,164.842C183.586,160.201 176.79,156.434 168.418,156.434ZM168.418,158.078C175.153,158.078 180.62,161.109 180.62,164.842C180.62,168.576 175.153,171.606 168.418,171.606C161.684,171.606 156.216,168.576 156.216,164.842C156.216,161.109 161.684,158.078 168.418,158.078Z"/>
    </g>
    <g transform="matrix(1.76323,0,0,1.76323,-146.384,-126.311)">
        <g transform="matrix(-1.52913,-0.583241,-0.46443,1.21763,464.785,77.32)">
            <path d="M123.742,62.439L147.257,107.502L118.936,107.502L123.742,62.439Z" style="fill:rgb(226,243,241);"/>
            <clipPath id="_clip1">
                <path d="M123.742,62.439L147.257,107.502L118.936,107.502L123.742,62.439Z"/>
            </clipPath>
            <g clip-path="url(#_clip1)">
                <g transform="matrix(-0.292379,-0.325858,-0.259478,0.367176,219.829,146.706)">
                    <path d="M203.292,75.304C225.986,66.006 328.984,14.321 332.365,28.492C335.627,42.168 318.899,103.51 286.962,108.717C251.096,114.565 249.452,114.213 230.839,98.525" style="fill:white;stroke:black;stroke-width:7.09px;"/>
                </g>
                <g transform="matrix(0.292379,0.325858,-0.259478,0.367176,127.396,43.6893)">
                    <path d="M223.378,72.713C310.932,36.844 326.771,8.349 327.985,38.774C328.545,52.822 318.899,103.51 286.962,108.717C251.096,114.565 249.452,114.213 230.839,98.525" style="fill:white;stroke:black;stroke-width:7.09px;"/>
                </g>
            </g>
            <path d="M120.994,61.976L116.188,107.04C116.082,108.035 116.323,109.039 116.849,109.794C117.376,110.55 118.136,110.983 118.936,110.983L147.257,110.983C148.276,110.983 149.212,110.282 149.696,109.157C150.181,108.031 150.134,106.663 149.576,105.594L126.061,60.53C125.426,59.314 124.256,58.721 123.127,59.044C121.998,59.366 121.148,60.535 120.994,61.976ZM123.742,62.439L147.257,107.502L118.936,107.502L123.742,62.439Z"/>
        </g>
        <g transform="matrix(1.51549,-0.617806,0.491954,1.20677,-93.5228,83.6014)">
            <path d="M123.742,62.439L147.257,107.502L118.936,107.502L123.742,62.439Z" style="fill:rgb(226,243,241);"/>
            <clipPath id="_clip2">
                <path d="M123.742,62.439L147.257,107.502L118.936,107.502L123.742,62.439Z"/>
            </clipPath>
            <g clip-path="url(#_clip2)">
                <g transform="matrix(-0.236623,-0.470222,-0.330459,0.262258,206.52,197.811)">
                    <path d="M214.334,44.776C311.143,35.411 326.771,8.349 327.985,38.774C328.545,52.822 318.899,103.51 286.962,108.717C251.096,114.565 249.452,114.213 230.839,98.525" style="fill:white;stroke:black;stroke-width:6.64px;"/>
                </g>
            </g>
            <path d="M126.061,60.53L149.576,105.594C150.134,106.663 150.181,108.031 149.696,109.157C149.212,110.282 148.276,110.983 147.257,110.983L118.936,110.983C118.136,110.983 117.376,110.55 116.849,109.794C116.323,109.039 116.082,108.035 116.188,107.04L120.994,61.976C121.148,60.535 121.998,59.366 123.127,59.044C124.256,58.721 125.426,59.314 126.061,60.53ZM123.742,62.439L118.936,107.502L147.257,107.502L123.742,62.439Z"/>
        </g>
    </g>
    <g transform="matrix(-0.971908,0,0,0.971908,249.103,20.0802)">
        <path d="M129.478,157.114C150.783,157.114 169.257,188.693 170,199.868C171.8,226.942 152.703,232.435 131.398,232.435C110.093,232.435 94.717,228.524 92.796,202.541C91.971,191.371 108.173,157.114 129.478,157.114Z" style="fill:rgb(226,243,241);"/>
        <path d="M129.478,157.114C108.173,157.114 91.971,191.371 92.796,202.541C94.717,228.524 110.093,232.435 131.398,232.435C152.703,232.435 171.8,226.942 170,199.868C169.257,188.693 150.783,157.114 129.478,157.114ZM129.478,165.345C135.928,165.345 141.818,169.584 146.861,174.715C155.247,183.246 161.413,194.788 161.787,200.414C162.309,208.261 160.854,213.728 157.397,217.317C151.614,223.321 141.727,224.204 131.398,224.204C121.122,224.204 112.372,223.822 106.834,218.404C103.386,215.032 101.582,209.737 101.005,201.934C100.596,196.391 105.827,184.23 113.427,175.182C117.907,169.85 123.247,165.345 129.478,165.345Z"/>
    </g>
    <g transform="matrix(2.01313,0,0,-2.01313,12.1534,492.125)">
        <path d="M39.583,181.666C43.766,203.283 59.79,214.554 85.11,214.554C110.429,214.554 126.822,199.126 130.637,181.666C134.945,177.416 137.21,172.631 137.21,167.763C137.21,151.98 113.865,139.167 85.11,139.167C56.355,139.167 33.01,151.98 33.01,167.763C33.01,172.631 35.275,177.416 39.583,181.666Z" style="fill:white;"/>
        <clipPath id="_clip3">
            <path d="M39.583,181.666C43.766,203.283 59.79,214.554 85.11,214.554C110.429,214.554 126.822,199.126 130.637,181.666C134.945,177.416 137.21,172.631 137.21,167.763C137.21,151.98 113.865,139.167 85.11,139.167C56.355,139.167 33.01,151.98 33.01,167.763C33.01,172.631 35.275,177.416 39.583,181.666Z"/>
        </clipPath>
        <g clip-path="url(#_clip3)">
            <g transform="matrix(0.875864,0,0,-0.875864,-73.0889,307.201)">
                <path d="M165.443,169.444C150.832,161.518 153.02,175.757 136.948,180.133C122.171,184.156 89.15,176.385 102.506,152.002C113.264,132.362 129.954,77.8 177.713,82.828C198.299,84.995 256.933,120.561 259.251,144.181C261.561,167.71 232.345,198.267 209.141,172.552C209.016,172.413 202.464,166.57 196.106,169.627C192.328,171.443 182.361,176.252 178.574,177.375C169.393,180.099 174.034,173.64 165.443,169.444Z" style="fill:rgb(226,243,241);"/>
            </g>
        </g>
        <path d="M35.923,183.605C40.827,206.401 57.981,218.528 85.11,218.528C112.123,218.528 129.656,202.194 134.254,183.651C138.87,178.763 141.183,173.281 141.183,167.763C141.183,160.309 136.998,153.285 129.533,147.698C119.505,140.191 103.354,135.193 85.11,135.193C66.866,135.193 50.715,140.191 40.687,147.698C33.222,153.285 29.036,160.309 29.036,167.763C29.036,173.264 31.335,178.729 35.923,183.605ZM39.583,181.666C35.275,177.416 33.01,172.631 33.01,167.763C33.01,151.98 56.355,139.167 85.11,139.167C113.865,139.167 137.21,151.98 137.21,167.763C137.21,172.631 134.945,177.416 130.637,181.666C126.822,199.126 110.429,214.554 85.11,214.554C59.79,214.554 43.766,203.283 39.583,181.666Z"/>
    </g>
    <g transform="matrix(1,-2.60486e-17,2.37373e-17,-1.1051,-18.2613,397.448)">
        <path d="M238.713,231.319C235.886,236.216 214.938,225.843 199.576,225.619C189.035,225.465 176.895,225.408 166.629,227.381C158.275,228.987 151.32,235.12 149.193,232.511C142.263,224.012 172.861,203.292 173.17,196.447C173.602,186.874 177.859,173.965 188.261,173.017C209.692,171.065 218.56,185.494 218.4,197.455C218.321,203.399 238.801,219.811 240.173,227.99C240.382,229.238 239.167,230.534 238.713,231.319Z" style="fill:white;"/>
        <clipPath id="_clip4">
            <path d="M238.713,231.319C235.886,236.216 214.938,225.843 199.576,225.619C189.035,225.465 176.895,225.408 166.629,227.381C158.275,228.987 151.32,235.12 149.193,232.511C142.263,224.012 172.861,203.292 173.17,196.447C173.602,186.874 177.859,173.965 188.261,173.017C209.692,171.065 218.56,185.494 218.4,197.455C218.321,203.399 238.801,219.811 240.173,227.99C240.382,229.238 239.167,230.534 238.713,231.319Z"/>
        </clipPath>
        <g clip-path="url(#_clip4)">
            <g transform="matrix(0.219395,-5.86727e-19,-7.48519e-19,0.330345,147.474,148.1)">
                <path d="M158.833,195.162L170,216.339L147.665,216.339L158.833,195.162Z" style="fill:white;"/>
                <path d="M124.072,188.542L112.905,209.718C109.393,216.379 111.376,223.646 118.243,229.284C125.111,234.921 136.039,238.253 147.665,238.253L170,238.253C181.626,238.253 192.555,234.921 199.422,229.284C206.29,223.646 208.272,216.379 204.76,209.718L193.593,188.542C188.791,179.436 174.727,173.248 158.833,173.248C142.938,173.248 128.874,179.436 124.072,188.542ZM158.833,195.162L170,216.339L147.665,216.339L158.833,195.162Z"/>
            </g>
            <g transform="matrix(0.219395,-5.86727e-19,-7.48519e-19,0.330345,183.316,147.754)">
                <path d="M158.833,195.162L170,216.339L147.665,216.339L158.833,195.162Z" style="fill:white;"/>
                <path d="M124.072,188.542L112.905,209.718C109.393,216.379 111.376,223.646 118.243,229.284C125.111,234.921 136.039,238.253 147.665,238.253L170,238.253C181.626,238.253 192.555,234.921 199.422,229.284C206.29,223.646 208.272,216.379 204.76,209.718L193.593,188.542C188.791,179.436 174.727,173.248 158.833,173.248C142.938,173.248 128.874,179.436 124.072,188.542ZM158.833,195.162L170,216.339L147.665,216.339L158.833,195.162Z"/>
            </g>
            <g transform="matrix(1,-2.35712e-17,2.14798e-17,-0.904894,18.2613,358.841)">
                <rect x="207.262" y="146.303" width="6.349" height="5.373"/>
            </g>
        </g>
        <path d="M238.713,231.319C239.167,230.534 240.382,229.238 240.173,227.99C238.801,219.811 218.321,203.399 218.4,197.455C218.56,185.494 209.692,171.065 188.261,173.017C177.859,173.965 173.602,186.874 173.17,196.447C172.861,203.292 142.263,224.012 149.193,232.511C151.32,235.12 158.275,228.987 166.629,227.381C176.895,225.408 189.035,225.465 199.576,225.619C214.938,225.843 235.886,236.216 238.713,231.319ZM162.295,220.955C167.278,215.483 173.405,209.89 176.879,205.654C179.76,202.141 181.065,198.929 181.164,196.743C181.338,192.871 182.228,188.313 184.184,184.64C185.322,182.502 186.615,180.443 189.063,180.22C195.198,179.661 199.943,180.785 203.363,183.115C208.415,186.556 210.468,192.31 210.401,197.368L210.741,200.046C210.984,200.977 211.383,202.009 211.961,203.113C213.357,205.782 216.123,209.247 219.39,212.94C222.582,216.548 226.28,220.461 229.081,224.046C226.609,223.484 223.792,222.817 221.436,222.188C214.328,220.293 206.512,218.48 199.705,218.38C188.589,218.218 175.792,218.219 164.967,220.3C164.119,220.463 163.218,220.688 162.295,220.955Z"/>
    </g>
    <g transform="matrix(-1.66455,0.581597,0.581597,1.66455,403.543,-184.153)">
        <g>
            <g transform="matrix(0.785703,0,0,0.785703,34.8592,31.2294)">
                <g transform="matrix(1,-9.84465e-17,9.84465e-17,-1.80388,-12.0277,423.134)">
                    <path d="M179.042,168.169L157.795,168.169C156.76,167.154 156.216,166.008 156.216,164.842C156.216,161.109 161.684,158.078 168.418,158.078C175.153,158.078 180.62,161.109 180.62,164.842C180.62,166.008 180.077,167.154 179.042,168.169Z"/>
                </g>
                <g transform="matrix(0.995969,-0.089698,-0.089698,-0.995969,1.00994,267.285)">
                    <path d="M146.737,134.766C156.976,131.652 169.599,130.266 174.077,133.552" style="fill:white;stroke:black;stroke-width:5.77px;"/>
                </g>
                <g transform="matrix(1,-9.84465e-17,1.98582e-16,-1.80388,-12.0277,423.134)">
                    <path d="M179.546,167.618L157.291,167.618C156.583,166.745 156.216,165.799 156.216,164.842C156.216,161.109 161.684,158.078 168.418,158.078C175.153,158.078 180.62,161.109 180.62,164.842C180.62,165.799 180.254,166.745 179.546,167.618Z"/>
                </g>
                <g transform="matrix(-0.835109,0.550084,-0.550084,-0.835109,409.376,124.601)">
                    <path d="M146.737,134.766C156.976,131.652 169.599,130.266 174.077,133.552" style="fill:white;stroke:black;stroke-width:5.77px;"/>
                </g>
                <g transform="matrix(-0.782402,0.622774,-1.12341,-1.41136,516.636,238.418)">
                    <path d="M179.546,167.618L157.291,167.618C156.583,166.745 156.216,165.799 156.216,164.842C156.216,161.109 161.684,158.078 168.418,158.078C175.153,158.078 180.62,161.109 180.62,164.842C180.62,165.799 180.254,166.745 179.546,167.618Z"/>
                </g>
            </g>
        </g>
    </g>
    <g transform="matrix(-2.2265,1.0225e-16,1.0225e-16,-1.39156,588.854,350.12)">
        <path d="M188.409,156.22L175.717,156.22C175.074,155.479 174.735,154.638 174.735,153.782C174.735,151.091 178.019,148.906 182.063,148.906C186.107,148.906 189.391,151.091 189.391,153.782C189.391,154.638 189.052,155.479 188.409,156.22Z"/>
    </g>
    <g transform="matrix(0.918099,-0.396351,0.396351,0.918099,-15.7154,87.9778)">
        <path d="M234.459,142.502L289.822,142.502" style="fill:none;stroke:black;stroke-width:8px;"/>
    </g>
    <g transform="matrix(0.70339,-0.12302,0.172281,0.985048,77.4124,29.4193)">
        <path d="M234.459,142.502L289.822,142.502" style="fill:none;stroke:black;stroke-width:9.21px;"/>
    </g>
    <g transform="matrix(-0.888223,-0.186589,-0.266703,1.26959,354.662,7.29519)">
        <path d="M234.459,142.502L289.822,142.502" style="fill:none;stroke:black;stroke-width:7.15px;"/>
    </g>
    <g transform="matrix(-1.23366,-0.401344,-0.401344,1.23366,469.725,48.8451)">
        <path d="M234.459,142.502L289.822,142.502" style="fill:none;stroke:black;stroke-width:6.17px;"/>
    </g>
    <g transform="matrix(1.36148,0,0,-1.36148,80.9695,445.783)">
        <path d="M127.078,167.54C148.383,167.54 159.391,186.907 164.306,193.781C167.491,198.237 169.875,209.918 168.69,213.757C164.001,228.936 148.403,232.435 131.398,232.435C110.093,232.435 104.001,219.159 101.376,206.692C99.068,195.732 105.773,167.54 127.078,167.54Z" style="fill:rgb(226,243,241);"/>
        <clipPath id="_clip5">
            <path d="M127.078,167.54C148.383,167.54 159.391,186.907 164.306,193.781C167.491,198.237 169.875,209.918 168.69,213.757C164.001,228.936 148.403,232.435 131.398,232.435C110.093,232.435 104.001,219.159 101.376,206.692C99.068,195.732 105.773,167.54 127.078,167.54Z"/>
        </clipPath>
        <g clip-path="url(#_clip5)">
            <g transform="matrix(1,-2.24829e-17,-1.63439e-17,0.593492,73.0328,105.6)">
                <path d="M55.839,214.114C76.041,212.571 79.046,215.289 88.915,224.994C98.136,234.063 123.441,259.396 123.441,267.758C123.441,284.739 77.371,293.968 58.409,293.968C39.447,293.968 27.911,268.791 27.911,251.811C27.911,234.83 36.906,215.561 55.839,214.114Z" style="fill:white;"/>
                <path d="M55.839,214.114C36.906,215.561 27.911,234.83 27.911,251.811C27.911,268.791 39.447,293.968 58.409,293.968C77.371,293.968 123.441,284.739 123.441,267.758C123.441,259.396 98.136,234.063 88.915,224.994C79.046,215.289 76.041,212.571 55.839,214.114ZM116.178,267.494C114.824,268.781 112.858,270.508 111.067,271.545C96.846,279.783 71.216,284.068 58.409,284.068C49.118,284.068 41.988,276.748 37.788,267.831C35.293,262.535 33.787,256.752 33.787,251.811C33.787,238.639 41.42,225.127 56.105,224.005C74.317,222.614 77.056,224.796 85.953,233.545C92.243,239.73 106.224,253.649 114.04,264.257C114.754,265.227 115.519,266.418 116.178,267.494Z"/>
            </g>
            <g transform="matrix(0.734496,0,0,-0.734496,-59.4718,327.426)">
                <path d="M241.451,122.169C216.008,129.79 225.17,158.432 238.661,163.117C264.324,172.028 262.341,177.618 279.258,173.505C288.554,171.245 318.681,171.473 303.967,152.08C279.143,119.36 257.744,104.488 256.022,105.136" style="fill:white;"/>
            </g>
        </g>
        <path d="M127.078,167.54C105.773,167.54 99.068,195.732 101.376,206.692C104.001,219.159 110.093,232.435 131.398,232.435C148.403,232.435 164.001,228.936 168.69,213.757C169.875,209.918 167.491,198.237 164.306,193.781C159.391,186.907 148.383,167.54 127.078,167.54ZM127.078,173.416C136.011,173.416 142.745,177.571 147.801,182.352C153.491,187.732 157.207,193.955 159.526,197.199C161.05,199.331 162.186,203.59 162.773,207.275C163.089,209.254 163.38,211.037 163.075,212.023C160.903,219.054 155.556,222.679 148.904,224.582C143.647,226.086 137.624,226.559 131.398,226.559C124.49,226.559 119.509,224.998 115.937,222.285C110.501,218.155 108.421,211.634 107.126,205.481C106.154,200.864 107.254,192.647 110.667,185.554C113.769,179.107 118.92,173.416 127.078,173.416Z"/>
    </g>
    <g transform="matrix(-2.39475,-0.641672,0.658074,-2.45597,891.734,619.355)">
        <path d="M291.593,87.365L297.149,107.585C294.628,104.86 289.26,105.326 285.739,107.719L291.593,87.365Z" style="fill:white;stroke:black;stroke-width:3.19px;stroke-linecap:square;"/>
    </g>
    <g transform="matrix(-2.66817,0.953442,-0.514451,-1.43967,1123.37,48.6613)">
        <path d="M290.929,87.539L295.113,110.224C292.216,106.508 288.115,107.221 284.911,110.819L290.929,87.539Z" style="fill:white;stroke:black;stroke-width:3.51px;stroke-linecap:square;"/>
    </g>
    <g transform="matrix(-1.74775,-1.75839,1.80334,-1.79243,558.23,866.083)">
        <path d="M290.787,91.327L298.45,106.549C296.684,105.289 294.436,105.56 293.081,105.983C292.023,106.315 289.4,107.58 288.109,108.824L290.787,91.327Z" style="fill:white;stroke:black;stroke-width:3.19px;stroke-linecap:square;"/>
    </g>
</svg>
