<?xml version="1.0" encoding="UTF-8" standalone="no"?>
<!DOCTYPE svg PUBLIC "-//W3C//DTD SVG 1.1//EN" "http://www.w3.org/Graphics/SVG/1.1/DTD/svg11.dtd">
<svg width="100%" height="100%" viewBox="0 0 340 281" version="1.1" xmlns="http://www.w3.org/2000/svg" xmlns:xlink="http://www.w3.org/1999/xlink" xml:space="preserve" xmlns:serif="http://www.serif.com/" style="fill-rule:evenodd;clip-rule:evenodd;stroke-linecap:round;stroke-linejoin:round;stroke-miterlimit:1.5;">
    <g transform="matrix(-1.59604,-1.95459e-16,6.92641e-17,-0.565584,489.836,286.235)">
        <path d="M242.064,179.802L139.384,179.802C134.181,168.792 131.442,156.303 131.442,143.59C131.442,103.617 158.005,71.164 190.724,71.164C223.443,71.164 250.006,103.617 250.006,143.59C250.006,156.303 247.267,168.792 242.064,179.802Z" style="fill:rgb(226,243,241);"/>
        <path d="M242.064,179.802L139.384,179.802C134.181,168.792 131.442,156.303 131.442,143.59C131.442,103.617 158.005,71.164 190.724,71.164C223.443,71.164 250.006,103.617 250.006,143.59C250.006,156.303 247.267,168.792 242.064,179.802ZM240.322,165.657C243.238,158.742 244.994,151.466 244.994,143.59C244.994,131.739 241.346,121.892 236.013,113.007C225.804,95.996 209.298,85.309 190.724,85.309C172.15,85.309 155.645,95.996 145.435,113.007C140.103,121.892 136.454,131.739 136.454,143.59C136.454,151.466 138.21,158.741 141.126,165.658L240.322,165.657Z"/>
    </g>
    <g transform="matrix(2.69734,-2.65544e-16,2.65544e-16,-4.86568,-308.74,922.596)">
        <path d="M168.418,156.434C160.047,156.434 153.25,160.201 153.25,164.842C153.25,169.483 160.047,173.251 168.418,173.251C176.79,173.251 183.586,169.483 183.586,164.842C183.586,160.201 176.79,156.434 168.418,156.434ZM168.418,158.078C175.153,158.078 180.62,161.109 180.62,164.842C180.62,168.576 175.153,171.606 168.418,171.606C161.684,171.606 156.216,168.576 156.216,164.842C156.216,161.109 161.684,158.078 168.418,158.078Z"/>
    </g>
    <g transform="matrix(1.76323,0,0,1.76323,-146.384,-126.311)">
        <g transform="matrix(-1.22406,-1.08632,-0.865025,0.974707,466.163,164.919)">
            <path d="M123.742,62.439L147.257,107.502L118.936,107.502L123.742,62.439Z" style="fill:rgb(226,243,241);"/>
            <clipPath id="_clip1">
                <path d="M123.742,62.439L147.257,107.502L118.936,107.502L123.742,62.439Z"/>
            </clipPath>
            <g clip-path="url(#_clip1)">
                <g transform="matrix(-0.292379,-0.325858,-0.259478,0.367176,219.829,146.706)">
                    <path d="M223.378,72.713C310.932,36.844 326.771,8.349 327.985,38.774C328.545,52.822 318.899,103.51 286.962,108.717C251.096,114.565 249.452,114.213 230.839,98.525" style="fill:white;stroke:black;stroke-width:7.09px;"/>
                </g>
                <g transform="matrix(0.292379,0.325858,-0.259478,0.367176,127.396,43.6893)">
                    <path d="M223.378,72.713C310.932,36.844 326.771,8.349 327.985,38.774C328.545,52.822 318.899,103.51 286.962,108.717C251.096,114.565 249.452,114.213 230.839,98.525" style="fill:white;stroke:black;stroke-width:7.09px;"/>
                </g>
            </g>
            <path d="M120.994,61.976L116.188,107.04C116.082,108.035 116.323,109.039 116.849,109.794C117.376,110.55 118.136,110.983 118.936,110.983L147.257,110.983C148.276,110.983 149.212,110.282 149.696,109.157C150.181,108.031 150.134,106.663 149.576,105.594L126.061,60.53C125.426,59.314 124.256,58.721 123.127,59.044C121.998,59.366 121.148,60.535 120.994,61.976ZM123.742,62.439L147.257,107.502L118.936,107.502L123.742,62.439Z"/>
        </g>
        <g transform="matrix(0.98676,-1.30564,1.03967,0.785748,-81.0564,217.731)">
            <path d="M123.742,62.439L147.257,107.502L118.936,107.502L123.742,62.439Z" style="fill:rgb(226,243,241);"/>
            <clipPath id="_clip2">
                <path d="M123.742,62.439L147.257,107.502L118.936,107.502L123.742,62.439Z"/>
            </clipPath>
            <g clip-path="url(#_clip2)">
                <g transform="matrix(-0.208834,-0.414997,-0.330459,0.262258,197.405,179.697)">
                    <path d="M223.378,72.713C310.932,36.844 326.771,8.349 327.985,38.774C328.545,52.822 318.899,103.51 286.962,108.717C251.096,114.565 249.452,114.213 230.839,98.525" style="fill:white;stroke:black;stroke-width:7.09px;"/>
                </g>
            </g>
            <path d="M126.061,60.53L149.576,105.594C150.134,106.663 150.181,108.031 149.696,109.157C149.212,110.282 148.276,110.983 147.257,110.983L118.936,110.983C118.136,110.983 117.376,110.55 116.849,109.794C116.323,109.039 116.082,108.035 116.188,107.04L120.994,61.976C121.148,60.535 121.998,59.366 123.127,59.044C124.256,58.721 125.426,59.314 126.061,60.53ZM123.742,62.439L118.936,107.502L147.257,107.502L123.742,62.439Z"/>
        </g>
    </g>
    <g transform="matrix(0.971908,0,0,0.971908,123.144,20.0802)">
        <path d="M129.478,157.114C150.783,157.114 169.257,188.693 170,199.868C171.8,226.942 152.703,232.435 131.398,232.435C110.093,232.435 94.717,228.524 92.796,202.541C91.971,191.371 108.173,157.114 129.478,157.114Z" style="fill:rgb(226,243,241);"/>
        <path d="M129.478,157.114C150.783,157.114 169.257,188.693 170,199.868C171.8,226.942 152.703,232.435 131.398,232.435C110.093,232.435 94.717,228.524 92.796,202.541C91.971,191.371 108.173,157.114 129.478,157.114ZM129.478,165.345C123.247,165.345 117.907,169.85 113.427,175.182C105.827,184.23 100.596,196.391 101.005,201.934C101.582,209.737 103.386,215.032 106.834,218.404C112.372,223.822 121.122,224.204 131.398,224.204C141.727,224.204 151.614,223.321 157.397,217.317C160.854,213.728 162.309,208.261 161.787,200.414C161.413,194.788 155.247,183.246 146.861,174.715C141.818,169.584 135.928,165.345 129.478,165.345Z"/>
    </g>
    <g transform="matrix(2.01313,0,0,-2.01313,12.1534,492.125)">
        <path d="M39.583,181.666C43.766,203.283 59.79,214.554 85.11,214.554C110.429,214.554 126.822,199.126 130.637,181.666C134.945,177.416 137.21,172.631 137.21,167.763C137.21,151.98 113.865,139.167 85.11,139.167C56.355,139.167 33.01,151.98 33.01,167.763C33.01,172.631 35.275,177.416 39.583,181.666Z" style="fill:white;"/>
        <clipPath id="_clip3">
            <path d="M39.583,181.666C43.766,203.283 59.79,214.554 85.11,214.554C110.429,214.554 126.822,199.126 130.637,181.666C134.945,177.416 137.21,172.631 137.21,167.763C137.21,151.98 113.865,139.167 85.11,139.167C56.355,139.167 33.01,151.98 33.01,167.763C33.01,172.631 35.275,177.416 39.583,181.666Z"/>
        </clipPath>
        <g clip-path="url(#_clip3)">
            <g transform="matrix(0.875864,0,0,-0.875864,-73.0889,307.201)">
                <path d="M165.443,169.444C150.832,161.518 153.02,175.757 136.948,180.133C122.171,184.156 89.15,176.385 102.506,152.002C113.264,132.362 129.954,77.8 177.713,82.828C198.299,84.995 256.933,120.561 259.251,144.181C261.561,167.71 232.345,198.267 209.141,172.552C209.016,172.413 202.464,166.57 196.106,169.627C192.328,171.443 182.361,176.252 178.574,177.375C169.393,180.099 174.034,173.64 165.443,169.444Z" style="fill:rgb(226,243,241);"/>
            </g>
        </g>
        <path d="M35.923,183.605C40.827,206.401 57.981,218.528 85.11,218.528C112.123,218.528 129.656,202.194 134.254,183.651C138.87,178.763 141.183,173.281 141.183,167.763C141.183,160.309 136.998,153.285 129.533,147.698C119.505,140.191 103.354,135.193 85.11,135.193C66.866,135.193 50.715,140.191 40.687,147.698C33.222,153.285 29.036,160.309 29.036,167.763C29.036,173.264 31.335,178.729 35.923,183.605ZM39.583,181.666C35.275,177.416 33.01,172.631 33.01,167.763C33.01,151.98 56.355,139.167 85.11,139.167C113.865,139.167 137.21,151.98 137.21,167.763C137.21,172.631 134.945,177.416 130.637,181.666C126.822,199.126 110.429,214.554 85.11,214.554C59.79,214.554 43.766,203.283 39.583,181.666Z"/>
    </g>
    <g transform="matrix(1.12805,0,0,1.12805,-19.6892,-4.45239)">
        <g transform="matrix(1.56308,0,0,1.56308,-98.7253,-91.1906)">
            <g transform="matrix(0.785703,0,0,0.785703,34.8592,31.2294)">
                <g>
                    <g transform="matrix(0.984952,-0.17283,0.17283,0.984952,-32.7785,23.7731)">
                        <path d="M146.737,134.766C156.976,131.652 169.599,130.266 174.077,133.552" style="fill:white;stroke:black;stroke-width:5.77px;"/>
                    </g>
                    <g transform="matrix(1,-9.84465e-17,9.84465e-17,-1.80388,-9.32041,430.883)">
                        <ellipse cx="168.418" cy="164.842" rx="12.202" ry="6.764"/>
                    </g>
                </g>
                <g>
                    <g transform="matrix(0.984952,-0.17283,0.17283,0.984952,-32.7785,23.7731)">
                        <path d="M146.737,134.766C156.976,131.652 169.599,130.266 174.077,133.552" style="fill:white;stroke:black;stroke-width:5.77px;"/>
                    </g>
                    <g transform="matrix(1,-9.84465e-17,9.84465e-17,-1.80388,-9.32041,430.883)">
                        <ellipse cx="168.418" cy="164.842" rx="12.202" ry="6.764"/>
                    </g>
                </g>
            </g>
        </g>
        <g transform="matrix(-1.56308,0,0,1.56308,458.957,-91.1906)">
            <g transform="matrix(0.785703,0,0,0.785703,34.8592,31.2294)">
                <g>
                    <g transform="matrix(0.984952,-0.17283,0.17283,0.984952,-32.7785,23.7731)">
                        <path d="M146.737,134.766C156.976,131.652 169.599,130.266 174.077,133.552" style="fill:white;stroke:black;stroke-width:5.77px;"/>
                    </g>
                    <g transform="matrix(1,-9.84465e-17,9.84465e-17,-1.80388,-9.32041,430.883)">
                        <ellipse cx="168.418" cy="164.842" rx="12.202" ry="6.764"/>
                    </g>
                </g>
                <g>
                    <g transform="matrix(0.984952,-0.17283,0.17283,0.984952,-32.7785,23.7731)">
                        <path d="M146.737,134.766C156.976,131.652 169.599,130.266 174.077,133.552" style="fill:white;stroke:black;stroke-width:5.77px;"/>
                    </g>
                    <g transform="matrix(1,-9.84465e-17,9.84465e-17,-1.80388,-9.32041,430.883)">
                        <ellipse cx="168.418" cy="164.842" rx="12.202" ry="6.764"/>
                    </g>
                </g>
            </g>
        </g>
    </g>
    <g transform="matrix(1.03148,0,0,1.76323,-6.48318,-106.971)">
        <path d="M149.854,166.671L152.396,166.801L162.654,158.658L177.732,168.385L195.601,158.658L205.986,169.116L211.075,163.38L218.498,166.801" style="fill:none;stroke:black;stroke-width:5.54px;"/>
    </g>
    <g transform="matrix(-2.2265,0,0,-2.2265,588.854,492.963)">
        <path d="M188.409,156.22L175.717,156.22C175.074,155.479 174.735,154.638 174.735,153.782C174.735,151.091 178.019,148.906 182.063,148.906C186.107,148.906 189.391,151.091 189.391,153.782C189.391,154.638 189.052,155.479 188.409,156.22Z"/>
    </g>
    <g transform="matrix(1.12805,0,0,1.12805,-22.6474,-4.45239)">
        <path d="M127.078,167.54C148.383,167.54 169.257,188.693 170,199.868C171.8,226.942 152.703,232.435 131.398,232.435C110.093,232.435 94.717,228.524 92.796,202.541C91.971,191.371 105.773,167.54 127.078,167.54Z" style="fill:rgb(226,243,241);"/>
        <clipPath id="_clip4">
            <path d="M127.078,167.54C148.383,167.54 169.257,188.693 170,199.868C171.8,226.942 152.703,232.435 131.398,232.435C110.093,232.435 94.717,228.524 92.796,202.541C91.971,191.371 105.773,167.54 127.078,167.54Z"/>
        </clipPath>
        <g clip-path="url(#_clip4)">
            <g transform="matrix(1,0,0,0.72695,73.0328,22.8805)">
                <path d="M58.409,232.435C68.034,232.435 85.54,230.74 91.78,236.459C97.834,242.007 92.766,254.84 92.766,263.202C92.766,280.182 77.371,293.968 58.409,293.968C39.447,293.968 24.052,280.182 24.052,263.202C24.052,246.221 39.447,232.435 58.409,232.435Z" style="fill:white;"/>
            </g>
        </g>
        <path d="M127.078,167.54C148.383,167.54 169.257,188.693 170,199.868C171.8,226.942 152.703,232.435 131.398,232.435C110.093,232.435 94.717,228.524 92.796,202.541C91.971,191.371 105.773,167.54 127.078,167.54ZM127.078,174.632C116.882,174.632 109.032,181.776 104.372,189.175C101.432,193.843 99.62,198.646 99.869,202.018C100.472,210.179 102.431,215.691 106.037,219.219C111.762,224.819 120.776,225.343 131.398,225.343C142.067,225.343 152.245,224.309 158.218,218.108C161.856,214.33 163.473,208.598 162.924,200.338C162.704,197.026 159.665,192.79 155.606,188.588C148.608,181.344 137.964,174.632 127.078,174.632Z"/>
    </g>
    <g transform="matrix(0.983905,-0.17869,0.17869,0.983905,0.276658,47.1332)">
        <path d="M234.459,142.502L289.822,142.502" style="fill:none;stroke:black;stroke-width:8px;"/>
    </g>
    <g transform="matrix(0.860649,0.0471589,-0.0547125,0.998502,69.6078,9.23078)">
        <path d="M234.459,142.502L289.822,142.502" style="fill:none;stroke:black;stroke-width:8.57px;"/>
    </g>
    <g transform="matrix(-0.698566,0.0382776,0.0547125,0.998502,253.933,13.924)">
        <path d="M234.459,142.502L289.822,142.502" style="fill:none;stroke:black;stroke-width:9.27px;"/>
    </g>
    <g transform="matrix(-0.99861,-0.0527055,-0.0527055,0.99861,347.895,21.9049)">
        <path d="M234.459,142.502L289.822,142.502" style="fill:none;stroke:black;stroke-width:8px;"/>
    </g>
</svg>
