<?xml version="1.0" encoding="UTF-8" standalone="no"?>
<!DOCTYPE svg PUBLIC "-//W3C//DTD SVG 1.1//EN" "http://www.w3.org/Graphics/SVG/1.1/DTD/svg11.dtd">
<svg width="100%" height="100%" viewBox="0 0 3000 4200" version="1.1" xmlns="http://www.w3.org/2000/svg" xmlns:xlink="http://www.w3.org/1999/xlink" xml:space="preserve" xmlns:serif="http://www.serif.com/" style="fill-rule:evenodd;clip-rule:evenodd;stroke-linecap:round;stroke-linejoin:round;stroke-miterlimit:1.5;">
    <g transform="matrix(0.886321,-0.463071,0.368954,0.70618,-170.298,766.962)">
        <path d="M625.119,1464.46C632.407,1439.93 640.984,1415.72 650.882,1391.94C663.838,1360.82 678.577,1331.6 694.87,1304.37C642.018,1269.31 598.117,1240 595.175,1237.42C535.897,1185.55 507.752,1105.91 531.761,1048.23C558.862,983.131 642.219,970.508 717.79,1020.06L870.094,1119.93C935.007,1078.4 1006.74,1054.23 1080.3,1049.31C1081.63,1045.58 1083.05,1041.89 1084.57,1038.24C1105.02,989.112 1140.22,954.214 1183.43,934.975L1268.59,744.984L1352.61,932.425C1375.79,940.508 1399.03,951.939 1421.75,966.84C1441.05,979.497 1458.93,993.969 1475.23,1009.85L1661.35,987.488L1579.76,1199.21C1590.62,1253.07 1587.46,1307.36 1567.63,1355C1565.99,1358.92 1564.27,1362.76 1562.45,1366.5C1600.9,1444.89 1625.82,1532.25 1635.63,1622.47C1712.69,1673.43 1797.68,1729.83 1801.81,1733.45C1861.09,1785.33 1889.23,1864.97 1865.23,1922.64C1838.12,1987.74 1754.77,2000.37 1679.2,1950.81L1614.79,1908.58C1606.33,1940.63 1595.71,1972.22 1582.86,2003.08C1572.96,2026.86 1562.02,2049.52 1550.15,2071.04C1575.3,2173.67 1602.16,2284.26 1602.67,2290.49C1610.27,2381.79 1561.32,2472.52 1483.07,2503.33C1394.74,2538.1 1302.32,2483.43 1276.8,2381.32L1186.77,2021.09L1190.06,2019.8L1111.53,1975.97C1093.47,2036.66 1070.69,2100.37 1044.61,2163.03C941.701,2410.24 954.78,2674.3 757.817,2545.15C591.785,2436.27 741.027,2278.65 843.933,2031.44C869.945,1968.96 898.52,1909.27 927.804,1856.11L865.205,1809.84L865.32,1810.3L578.306,1923.29C496.95,1955.32 408.407,1891.32 380.702,1780.46C356.159,1682.25 387.544,1580 451.59,1535.68C455.96,1532.66 543.63,1497.17 625.119,1464.46Z" style="fill:white;"/>
        <clipPath id="_clip1">
            <path d="M625.119,1464.46C632.407,1439.93 640.984,1415.72 650.882,1391.94C663.838,1360.82 678.577,1331.6 694.87,1304.37C642.018,1269.31 598.117,1240 595.175,1237.42C535.897,1185.55 507.752,1105.91 531.761,1048.23C558.862,983.131 642.219,970.508 717.79,1020.06L870.094,1119.93C935.007,1078.4 1006.74,1054.23 1080.3,1049.31C1081.63,1045.58 1083.05,1041.89 1084.57,1038.24C1105.02,989.112 1140.22,954.214 1183.43,934.975L1268.59,744.984L1352.61,932.425C1375.79,940.508 1399.03,951.939 1421.75,966.84C1441.05,979.497 1458.93,993.969 1475.23,1009.85L1661.35,987.488L1579.76,1199.21C1590.62,1253.07 1587.46,1307.36 1567.63,1355C1565.99,1358.92 1564.27,1362.76 1562.45,1366.5C1600.9,1444.89 1625.82,1532.25 1635.63,1622.47C1712.69,1673.43 1797.68,1729.83 1801.81,1733.45C1861.09,1785.33 1889.23,1864.97 1865.23,1922.64C1838.12,1987.74 1754.77,2000.37 1679.2,1950.81L1614.79,1908.58C1606.33,1940.63 1595.71,1972.22 1582.86,2003.08C1572.96,2026.86 1562.02,2049.52 1550.15,2071.04C1575.3,2173.67 1602.16,2284.26 1602.67,2290.49C1610.27,2381.79 1561.32,2472.52 1483.07,2503.33C1394.74,2538.1 1302.32,2483.43 1276.8,2381.32L1186.77,2021.09L1190.06,2019.8L1111.53,1975.97C1093.47,2036.66 1070.69,2100.37 1044.61,2163.03C941.701,2410.24 954.78,2674.3 757.817,2545.15C591.785,2436.27 741.027,2278.65 843.933,2031.44C869.945,1968.96 898.52,1909.27 927.804,1856.11L865.205,1809.84L865.32,1810.3L578.306,1923.29C496.95,1955.32 408.407,1891.32 380.702,1780.46C356.159,1682.25 387.544,1580 451.59,1535.68C455.96,1532.66 543.63,1497.17 625.119,1464.46Z"/>
        </clipPath>
        <g clip-path="url(#_clip1)">
            <g transform="matrix(1.22104,0.800688,0.637951,-1.53252,-1165.41,1653.52)">
                <path d="M1910.42,1370.67L1111.47,1370.67C1070.99,1323.8 1049.67,1270.63 1049.67,1216.51C1049.67,1046.34 1256.36,908.185 1510.95,908.185C1765.53,908.185 1972.22,1046.34 1972.22,1216.51C1972.22,1270.63 1950.91,1323.8 1910.42,1370.67Z" style="fill:rgb(226,243,241);"/>
            </g>
            <g transform="matrix(-1.84721,-1.21129,-0.363059,0.872162,4367.23,2085.07)">
                <path d="M1432.16,873.355C1416.6,883.737 1405.78,906.65 1405.78,933.221C1405.78,944.771 1407.86,956.117 1411.82,966.119L1489.97,966.119C1493.93,956.117 1496.01,944.771 1496.01,933.221C1496.01,906.65 1485.19,883.737 1469.63,873.355C1466.05,866.671 1459,862.119 1450.89,862.119C1442.79,862.119 1435.74,866.671 1432.16,873.355Z" style="stroke:black;stroke-width:28.23px;"/>
            </g>
        </g>
        <path d="M625.119,1464.46C632.407,1439.93 640.984,1415.72 650.882,1391.94C663.838,1360.82 678.577,1331.6 694.87,1304.37C642.018,1269.31 598.117,1240 595.175,1237.42C535.897,1185.55 507.752,1105.91 531.761,1048.23C558.862,983.131 642.219,970.508 717.79,1020.06L870.094,1119.93C935.007,1078.4 1006.74,1054.23 1080.3,1049.31C1081.63,1045.58 1083.05,1041.89 1084.57,1038.24C1105.02,989.112 1140.22,954.214 1183.43,934.975L1268.59,744.984L1352.61,932.425C1375.79,940.508 1399.03,951.939 1421.75,966.84C1441.05,979.497 1458.93,993.969 1475.23,1009.85L1661.35,987.488L1579.76,1199.21C1590.62,1253.07 1587.46,1307.36 1567.63,1355C1565.99,1358.92 1564.27,1362.76 1562.45,1366.5C1600.9,1444.89 1625.82,1532.25 1635.63,1622.47C1712.69,1673.43 1797.68,1729.83 1801.81,1733.45C1861.09,1785.33 1889.23,1864.97 1865.23,1922.64C1838.12,1987.74 1754.77,2000.37 1679.2,1950.81L1614.79,1908.58C1606.33,1940.63 1595.71,1972.22 1582.86,2003.08C1572.96,2026.86 1562.02,2049.52 1550.15,2071.04C1575.3,2173.67 1602.16,2284.26 1602.67,2290.49C1610.27,2381.79 1561.32,2472.52 1483.07,2503.33C1394.74,2538.1 1302.32,2483.43 1276.8,2381.32L1186.77,2021.09L1190.06,2019.8L1111.53,1975.97C1093.47,2036.66 1070.69,2100.37 1044.61,2163.03C941.701,2410.24 954.78,2674.3 757.817,2545.15C591.785,2436.27 741.027,2278.65 843.933,2031.44C869.945,1968.96 898.52,1909.27 927.804,1856.11L865.205,1809.84L865.32,1810.3L578.306,1923.29C496.95,1955.32 408.407,1891.32 380.702,1780.46C356.159,1682.25 387.544,1580 451.59,1535.68C455.96,1532.66 543.63,1497.17 625.119,1464.46Z" style="fill:none;stroke:black;stroke-width:49.16px;"/>
    </g>
    <g transform="matrix(0.994253,0,0,1.06558,-67.0247,-274.378)">
        <path d="M2046.42,1676.95C2090.39,1353.75 1768.68,1075.2 1412.94,1144.44C1380.96,1150.67 1188.87,1188.05 1070.65,1365.15C989.528,1486.68 993.32,1612.57 992.885,1616.87" style="fill:none;"/>
        <clipPath id="_clip2">
            <path d="M2046.42,1676.95C2090.39,1353.75 1768.68,1075.2 1412.94,1144.44C1380.96,1150.67 1188.87,1188.05 1070.65,1365.15C989.528,1486.68 993.32,1612.57 992.885,1616.87"/>
        </clipPath>
        <g clip-path="url(#_clip2)">
            <g transform="matrix(1.38562,0,0,-1.29287,-577.849,2796.35)">
                <path d="M1910.42,1370.67L1111.47,1370.67C1070.99,1323.8 1049.67,1270.63 1049.67,1216.51C1049.67,1046.34 1256.36,908.185 1510.95,908.185C1765.53,908.185 1972.22,1046.34 1972.22,1216.51C1972.22,1270.63 1950.91,1323.8 1910.42,1370.67Z" style="fill:rgb(226,243,241);"/>
            </g>
        </g>
        <path d="M2046.42,1676.95C2090.39,1353.75 1768.68,1075.2 1412.94,1144.44C1380.96,1150.67 1188.87,1188.05 1070.65,1365.15C989.528,1486.68 993.32,1612.57 992.885,1616.87" style="fill:none;stroke:black;stroke-width:43.13px;"/>
    </g>
    <g transform="matrix(1,0,0,0.984539,-8.03217,-9.56279)">
        <g>
            <g transform="matrix(-0.936785,-0.349904,-0.349904,0.936785,3111.85,520.714)">
                <path d="M1249.06,898.76C1289.68,885.539 1322.08,885.989 1347.09,898.76" style="fill:none;stroke:black;stroke-width:44.56px;"/>
            </g>
            <g transform="matrix(0.936785,-0.349904,0.349904,0.936785,-203.977,520.714)">
                <path d="M1249.06,898.76C1289.68,885.539 1322.08,885.989 1347.09,898.76" style="fill:none;stroke:black;stroke-width:44.56px;"/>
            </g>
        </g>
        <g>
            <g transform="matrix(-0.936785,-0.349904,-0.349904,0.936785,3111.85,520.714)">
                <path d="M1249.06,898.76C1289.68,885.539 1322.08,885.989 1347.09,898.76" style="fill:none;stroke:black;stroke-width:44.56px;"/>
            </g>
            <g transform="matrix(0.936785,-0.349904,0.349904,0.936785,-203.977,520.714)">
                <path d="M1249.06,898.76C1289.68,885.539 1322.08,885.989 1347.09,898.76" style="fill:none;stroke:black;stroke-width:44.56px;"/>
            </g>
        </g>
    </g>
    <g transform="matrix(1,0,0,1,-4.44572,0)">
        <g transform="matrix(1.09122,0.421572,-0.360372,0.932809,731.679,-175.076)">
            <path d="M615.791,836.37L700.296,836.37" style="fill:none;stroke:black;stroke-width:40.84px;"/>
        </g>
        <g transform="matrix(1.39525,-0.0147462,0.0105683,0.999944,186.102,124.43)">
            <path d="M615.791,836.37L700.296,836.37" style="fill:none;stroke:black;stroke-width:36.61px;"/>
        </g>
        <g transform="matrix(-1.09122,0.421572,0.360372,0.932809,2157.23,-175.076)">
            <path d="M615.791,836.37L700.296,836.37" style="fill:none;stroke:black;stroke-width:40.84px;"/>
        </g>
        <g transform="matrix(-1.39525,-0.0147462,-0.0105683,0.999944,2702.81,124.43)">
            <path d="M615.791,836.37L700.296,836.37" style="fill:none;stroke:black;stroke-width:36.61px;"/>
        </g>
    </g>
    <g transform="matrix(1,0,0,1,79.9753,58.1877)">
        <path d="M1311.64,1466.65C1343.9,1485.07 1376.17,1503.49 1408.43,1521.92" style="stroke:black;stroke-width:44.44px;"/>
    </g>
    <g transform="matrix(-1,0,0,1,2800.04,58.1877)">
        <path d="M1311.64,1466.65C1343.9,1485.07 1376.17,1503.49 1408.43,1521.92" style="stroke:black;stroke-width:44.44px;"/>
    </g>
</svg>
