<?xml version="1.0" encoding="UTF-8" standalone="no"?>
<!DOCTYPE svg PUBLIC "-//W3C//DTD SVG 1.1//EN" "http://www.w3.org/Graphics/SVG/1.1/DTD/svg11.dtd">
<svg width="100%" height="100%" viewBox="0 0 340 281" version="1.1" xmlns="http://www.w3.org/2000/svg" xmlns:xlink="http://www.w3.org/1999/xlink" xml:space="preserve" xmlns:serif="http://www.serif.com/" style="fill-rule:evenodd;clip-rule:evenodd;stroke-linecap:round;stroke-miterlimit:1.5;">
    <g transform="matrix(-1,0,0,2.82122,161.215,-238.815)">
        <path d="M76.22,134.451C82.813,133.194 89.406,131.937 95.999,130.68" style="fill:rgb(0,255,248);stroke:black;stroke-width:3.78px;"/>
    </g>
    <g transform="matrix(0.996695,-0.0812395,0.0812395,0.996695,-36.5731,10.5745)">
        <path d="M122.816,176.495C127.478,195.137 142.729,222.276 156.345,230.026C161.709,233.078 181.161,231.578 188.178,229.754C195.43,227.869 194.634,229.658 191.446,222.659C186.673,212.181 171.843,214.274 168.449,208.899C150.325,180.193 179.678,173.208 165.434,161.756C162.446,159.354 117.629,147.337 122.816,176.495Z" style="fill:white;"/>
        <path d="M174.808,203.974C175.753,204.286 179.38,205.478 181.788,206.221C188.592,208.32 195.292,211.804 198.726,219.343C200.446,223.118 201.424,225.097 201.623,226.156L201.705,229.021L200.98,231.501L199.531,233.671L197.219,235.477C196.281,235.989 194.148,236.468 190.191,237.497C184.764,238.907 172.609,240.185 163.77,239.643C158.81,239.338 154.716,238.303 152.388,236.978C146.115,233.408 139.393,226.408 133.418,217.747C125.089,205.673 118.049,190.409 115.055,178.436C115.011,178.258 114.972,178.078 114.94,177.897C113.398,169.226 115.278,163.084 118.591,158.707C123.264,152.533 131.642,149.58 140.811,149.295C149.43,149.026 158.617,150.918 163.928,152.552C167.407,153.622 169.675,154.901 170.447,155.522C174.212,158.549 176.021,161.567 176.87,164.396C177.83,167.593 177.64,170.774 176.529,174.099C175.891,176.008 174.897,178.014 173.784,180.174C172.399,182.861 170.654,185.919 170.372,189.887C170.102,193.687 171.282,198.204 174.808,203.974ZM122.816,176.495C127.478,195.137 142.729,222.276 156.345,230.026C161.709,233.078 181.161,231.578 188.178,229.754C195.43,227.869 194.634,229.658 191.446,222.659C186.673,212.181 171.843,214.274 168.449,208.899C150.325,180.193 179.678,173.208 165.434,161.756C162.446,159.354 117.629,147.337 122.816,176.495Z"/>
    </g>
    <g transform="matrix(0.932676,0.360715,-0.360715,0.932676,119.228,-44.2766)">
        <path d="M122.816,176.495C127.478,195.137 145.712,222.63 158.909,231.074C170.193,238.294 181.63,239.187 188.647,237.363C195.899,235.479 194.634,229.658 191.446,222.659C186.673,212.181 178.035,213.404 173.562,213.166C165.545,212.738 164.182,181.262 171.393,147.085C172.184,143.334 117.629,147.337 122.816,176.495Z" style="fill:white;stroke:black;stroke-width:8px;"/>
    </g>
    <g transform="matrix(0.68659,0,0,0.68659,31.1903,23.5419)">
        <path d="M135.787,234.084C128.668,237.396 120.796,239.236 112.521,239.236C109.506,239.236 106.583,238.495 103.655,238.522C77.318,238.761 52.694,225.173 45.459,210.483C43.298,206.097 42.629,201.159 43.452,196.432C44.045,187.024 48.399,178.629 55.025,172.735C57.052,149.4 71.587,129.857 91.49,121.634L136.795,94.32L125.002,113.924L163.902,100.804L148.613,130.837C150.754,132.648 152.769,134.616 154.644,136.725C166.876,139.678 181.153,142.262 196.628,143.447C209.813,144.458 237.2,139.255 243.801,134.236C262.954,119.674 274.227,115.374 287.38,112.667C294.754,107.505 297.224,98.809 320.487,101.976C331.107,103.421 343.601,111.488 360.371,130.029C368.121,138.596 376.331,147.811 381.439,157.984C387.604,170.261 391.873,183.305 392.148,193.347C392.783,216.521 380.029,226.883 372.487,230.625C364.963,234.358 350.498,228.974 353.116,213.951C353.888,209.526 361.308,205.579 361.356,192.669C361.394,182.312 356.965,173.753 352.158,166.387C352.787,170.517 353.116,174.775 353.116,179.127C353.116,207.876 322.578,231.894 294.158,242.015C275.811,261.455 266.072,278.134 271.486,283.323C276.196,287.837 286.892,294.695 282.202,310.796C279.071,321.55 274.936,329.178 265.14,324.366C255.662,319.711 243.888,307.857 238.294,289.163C235.162,278.697 234.905,262.313 236.868,245.334C223.688,244.142 209.195,242.367 198.234,240.013C195.303,239.384 192.541,238.782 189.927,238.203C188.654,246.294 190.099,256.337 198.429,269.53C203.372,277.36 224.97,274.311 231.922,289.572C236.565,299.765 238.409,308.243 227.847,310.988C217.627,313.645 200.969,312.344 184.533,301.828C167.938,291.21 145.875,259.911 135.787,234.084Z" style="fill:white;"/>
        <path d="M148.432,93.725L160.179,89.763C164.666,88.249 169.623,89.602 172.719,93.186C175.815,96.769 176.434,101.87 174.286,106.09L163.718,126.849C173.904,129.049 185.322,130.895 197.518,131.83C204.54,132.368 216.087,130.801 225.477,128.595C230.489,127.417 234.872,126.388 236.748,124.961C256.675,109.811 268.958,104.837 282.453,101.807C286.779,98.373 290.225,94.342 296.967,91.919C302.476,89.939 310.125,88.806 322.058,90.43C334.407,92.111 349.512,100.653 369.013,122.213C377.455,131.547 386.287,141.672 391.852,152.755C398.861,166.713 403.482,181.611 403.795,193.028C404.619,223.096 387.451,236.208 377.665,241.063C367.92,245.897 351.768,242.824 344.684,230.796C343.799,229.294 343.037,227.651 342.449,225.866C330.765,237.196 315.654,246.288 300.792,251.984C293.604,259.778 287.969,266.987 284.49,272.983C283.653,274.425 282.88,276.204 282.352,277.519C289.346,284.025 299.157,294.251 293.389,314.054C291.633,320.086 289.439,325.293 286.749,328.93L282.217,333.572L279.131,335.494L275.549,336.85L271.435,337.472L267.373,337.234C265.135,336.882 262.675,336.137 260.003,334.825C253.664,331.711 246.36,326.025 239.952,317.742L237.934,319.283C236.009,320.476 233.659,321.517 230.778,322.266C218.407,325.481 198.148,324.372 178.253,311.642C162.408,301.504 141.688,274.215 129.464,248.706C124.038,250.132 118.363,250.888 112.521,250.888C109.542,250.888 106.654,250.147 103.76,250.173C72.39,250.458 43.624,233.129 35.006,215.631C31.844,209.212 30.794,202.011 31.864,195.1C32.676,184.429 37.104,174.76 43.929,167.329C47.662,141.787 64.142,120.687 86.192,111.223L130.779,84.342C135.364,81.578 141.243,82.294 145.03,86.077C147.13,88.175 148.287,90.917 148.432,93.725ZM135.787,234.084C145.875,259.911 167.938,291.21 184.533,301.828C200.969,312.344 217.627,313.645 227.847,310.988C238.409,308.243 236.565,299.765 231.922,289.572C224.97,274.311 203.372,277.36 198.429,269.53C190.099,256.337 188.654,246.294 189.927,238.203C192.541,238.782 195.303,239.384 198.234,240.013C209.195,242.367 223.688,244.142 236.868,245.334C234.905,262.313 235.162,278.697 238.294,289.163C243.888,307.857 255.662,319.711 265.14,324.366C274.936,329.178 279.071,321.55 282.202,310.796C286.892,294.695 276.196,287.837 271.486,283.323C266.072,278.134 275.811,261.455 294.158,242.015C322.578,231.894 353.116,207.876 353.116,179.127C353.116,174.775 352.787,170.517 352.158,166.387C356.965,173.753 361.394,182.312 361.356,192.669C361.308,205.579 353.888,209.526 353.116,213.951C350.498,228.974 364.963,234.358 372.487,230.625C380.029,226.883 392.783,216.521 392.148,193.347C391.873,183.305 387.604,170.261 381.439,157.984C376.331,147.811 368.121,138.596 360.371,130.029C343.601,111.488 331.107,103.421 320.487,101.976C297.224,98.809 294.754,107.505 287.38,112.667C274.227,115.374 262.954,119.674 243.801,134.236C237.2,139.255 209.813,144.458 196.628,143.447C181.153,142.262 166.876,139.678 154.644,136.725C152.769,134.616 150.754,132.648 148.613,130.837L163.902,100.804L125.002,113.924L136.795,94.32L91.49,121.634C71.587,129.857 57.052,149.4 55.025,172.735C48.399,178.629 44.045,187.024 43.452,196.432C42.629,201.159 43.298,206.097 45.459,210.483C52.694,225.173 77.318,238.761 103.655,238.522C106.583,238.495 109.506,239.236 112.521,239.236C120.796,239.236 128.668,237.396 135.787,234.084ZM224.019,267.852C223.962,263.97 224.051,259.92 224.281,255.771C216.932,254.945 209.591,253.951 202.979,252.795C204.023,255.702 205.56,258.872 207.69,262.358C209.066,262.812 214.349,264.548 217.857,265.63C219.932,266.27 222,266.999 224.019,267.852Z"/>
    </g>
    <path d="M138.768,69.02C137.388,69.02 136.268,67.9 136.268,66.52C136.268,65.14 137.388,64.02 138.768,64.02L253.135,64.02C254.515,64.02 255.635,65.14 255.635,66.52C255.635,67.9 254.515,69.02 253.135,69.02L138.768,69.02Z"/>
    <path d="M177.53,82.331C176.15,82.331 175.03,81.21 175.03,79.831C175.03,78.451 176.15,77.331 177.53,77.331L237.054,77.331C238.434,77.331 239.554,78.451 239.554,79.831C239.554,81.21 238.434,82.331 237.054,82.331L177.53,82.331Z"/>
    <g transform="matrix(1,0,0,1,21.0413,0)">
        <path d="M234.174,226.782C232.794,226.782 231.674,225.661 231.674,224.282C231.674,222.902 232.794,221.782 234.174,221.782L284.697,221.782C286.077,221.782 287.197,222.902 287.197,224.282C287.197,225.661 286.077,226.782 284.697,226.782L234.174,226.782Z"/>
    </g>
    <g transform="matrix(1,0,0,1,21.0413,0)">
        <path d="M226.101,242.382C224.722,242.43 223.563,241.35 223.515,239.971C223.467,238.592 224.547,237.433 225.926,237.385C249.669,236.555 249.486,236.874 266.012,237.111C267.391,237.131 268.495,238.267 268.475,239.646C268.456,241.026 267.32,242.13 265.94,242.11C249.516,241.874 249.698,241.557 226.101,242.382Z"/>
    </g>
    <g transform="matrix(1,0,0,2.82122,5.33156,-238.815)">
        <path d="M76.22,134.451C82.813,133.194 89.406,131.937 95.999,130.68" style="fill:rgb(0,255,248);stroke:black;stroke-width:3.78px;"/>
    </g>
    <g transform="matrix(-1.01279,0.584734,-0.704024,-1.21941,210.076,229.652)">
        <path d="M59.669,102.284L45.179,102.284C44.444,101.471 44.058,100.549 44.058,99.611C44.058,96.66 47.807,94.265 52.424,94.265C57.041,94.265 60.79,96.66 60.79,99.611C60.79,100.549 60.404,101.471 59.669,102.284Z"/>
    </g>
    <g transform="matrix(-1.01279,0.584734,-0.704024,-1.21941,210.076,229.652)">
        <path d="M59.669,102.284L45.179,102.284C44.444,101.471 44.058,100.549 44.058,99.611C44.058,96.66 47.807,94.265 52.424,94.265C57.041,94.265 60.79,96.66 60.79,99.611C60.79,100.549 60.404,101.471 59.669,102.284Z"/>
    </g>
    <g transform="matrix(-0.638672,-0.196342,0.413756,-1.34588,55.4949,288.545)">
        <path d="M56.654,105.686L45.179,102.284C44.444,101.471 44.058,100.549 44.058,99.611C44.058,96.66 47.807,94.265 52.424,94.265C57.041,94.265 60.79,96.66 60.79,99.611C60.79,100.549 60.909,102.251 56.654,105.686Z"/>
    </g>
    <g transform="matrix(1.61182,0.235647,-0.235647,1.61182,-8.21703,-78.3963)">
        <path d="M76.22,134.451C82.813,133.194 89.406,131.937 95.999,130.68" style="fill:rgb(0,255,248);stroke:black;stroke-width:4.91px;"/>
    </g>
    <g transform="matrix(0.704578,0.39815,-0.492172,0.870961,96.015,20.3318)">
        <path d="M76.22,134.451C82.813,133.194 89.406,131.937 95.999,130.68" style="fill:rgb(0,255,248);stroke:black;stroke-width:8.79px;"/>
    </g>
</svg>
