<?xml version="1.0" encoding="UTF-8" standalone="no"?>
<!DOCTYPE svg PUBLIC "-//W3C//DTD SVG 1.1//EN" "http://www.w3.org/Graphics/SVG/1.1/DTD/svg11.dtd">
<svg width="100%" height="100%" viewBox="0 0 340 281" version="1.1" xmlns="http://www.w3.org/2000/svg" xmlns:xlink="http://www.w3.org/1999/xlink" xml:space="preserve" xmlns:serif="http://www.serif.com/" style="fill-rule:evenodd;clip-rule:evenodd;stroke-linecap:square;stroke-linejoin:round;stroke-miterlimit:1.5;">
    <g transform="matrix(-2.75844e-16,0.900976,-0.900976,-2.75844e-16,296.6,-12.666)">
        <path d="M194.768,143.36C189.614,152.45 182.814,162.173 172.743,167.356C160.964,173.42 149.965,166.047 148.039,164.405C148.071,161.869 148.041,159.399 147.945,156.997C153.098,147.907 170.883,135.609 170,133.946C169.95,133.852 196.918,151.366 194.768,143.36C194.74,142.673 194.129,139.422 193.699,134.968C193.013,126.24 193.713,118.886 195.021,112.876C195.175,112.234 195.306,111.651 195.436,111.092C195.763,109.773 196.118,108.525 196.491,107.347C197.503,104.508 199.421,100.611 204.219,92.373C204.219,92.373 199.681,97.29 196.491,107.347C196.003,108.718 195.725,109.843 195.436,111.092C195.292,111.673 195.153,112.267 195.021,112.876C194.922,113.288 194.814,113.725 194.691,114.194C192.878,121.129 193.131,129.094 193.699,134.968C193.902,137.549 194.742,143.264 194.768,143.36Z" style="fill:white;stroke:black;stroke-width:8.88px;"/>
    </g>
    <g transform="matrix(2.75844e-16,-0.900976,0.900976,2.75844e-16,55.4195,305.426)">
        <circle cx="183.052" cy="127.174" r="127.174" style="fill:white;"/>
        <clipPath id="_clip1">
            <circle cx="183.052" cy="127.174" r="127.174"/>
        </clipPath>
        <g clip-path="url(#_clip1)">
            <g transform="matrix(-1,0,0,-1,410.976,126.583)">
                <path d="M205.612,164.074C207.463,170.967 195.689,174.603 192.317,175.397C181.646,177.908 187.411,177.035 176.082,178.23C168.728,179.006 161.406,182.449 155.8,174.842C156.711,169.142 160.304,161.909 160.208,159.507C174.482,150.926 170.883,135.609 170,133.946C169.95,133.852 155.519,141.279 144.653,135.696C142.95,134.82 145.535,133.925 139.208,127.151C136.65,124.412 125.689,108.929 119.762,105.864C99.208,95.237 64.449,119.04 43.048,132.944C46.073,81.42 54.345,6.966 100.75,-10.064C113.831,-14.864 153.404,13.557 168.089,13.34C170.287,13.481 172.456,13.632 174.592,13.793C168.9,14.988 164.283,17.767 161.763,22.927C151.828,43.267 194.136,36.298 221.557,53.765C236.365,63.198 250.569,77.507 264.3,89.975C264.905,90.525 275.035,91.933 287.787,92.494C296.871,92.893 307.285,92.864 316.536,91.789C309.296,99.126 308.317,98.131 297.174,106.13C295.525,107.313 286.251,112.95 282.176,123.119C282.005,123.546 281.843,123.982 281.691,124.426C278.589,133.477 309.753,139.025 309.349,140.544C306.166,142.15 301.919,144.843 296.952,148.07C275.551,161.974 240.792,185.777 220.238,175.15C214.311,172.085 209.487,168.39 205.612,164.074C200.409,158.279 196.918,151.366 194.768,143.36C194.74,142.673 194.129,139.422 193.699,134.968C193.013,126.24 193.131,129.094 193.699,134.968C193.902,137.549 194.048,140.285 194.691,143.071C197.356,154.623 205.586,163.978 205.612,164.074Z" style="fill:rgb(78,78,78);stroke:black;stroke-width:8.88px;"/>
            </g>
        </g>
        <circle cx="183.052" cy="127.174" r="127.174" style="fill:none;stroke:black;stroke-width:8.88px;"/>
    </g>
    <g transform="matrix(-2.75844e-16,0.900976,-0.900976,-2.75844e-16,296.6,-12.666)">
        <path d="M205.612,164.074C207.463,170.967 195.689,174.603 192.317,175.397C181.646,177.908 187.411,177.035 176.082,178.23C168.728,179.006 161.406,182.449 155.8,174.842C156.711,169.142 160.304,161.909 160.208,159.507C174.482,150.926 170.883,135.609 170,133.946C169.95,133.852 155.519,141.279 144.653,135.696C142.95,134.82 145.535,133.925 139.208,127.151C136.65,124.412 125.689,108.929 119.762,105.864C99.208,95.237 64.449,119.04 43.048,132.944C46.925,66.895 101.307,14.326 168.089,13.34C170.287,13.481 172.456,13.632 174.592,13.793C168.9,14.988 164.283,17.767 161.763,22.927C151.828,43.267 194.136,36.298 221.557,53.765C236.365,63.198 250.569,77.507 264.3,89.975C264.905,90.525 275.035,91.933 287.787,92.494C296.871,92.893 307.285,92.864 316.536,91.789C309.296,99.126 308.317,98.131 297.174,106.13C295.525,107.313 286.251,112.95 282.176,123.119C282.005,123.546 281.843,123.982 281.691,124.426C278.589,133.477 309.753,139.025 309.349,140.544C306.166,142.15 301.919,144.843 296.952,148.07C275.551,161.974 240.792,185.777 220.238,175.15C214.311,172.085 209.487,168.39 205.612,164.074C200.409,158.279 196.918,151.366 194.768,143.36C194.74,142.673 194.129,139.422 193.699,134.968C193.013,126.24 193.713,118.886 195.021,112.876C195.175,112.234 195.306,111.651 195.436,111.092C195.763,109.773 196.118,108.525 196.491,107.347C197.503,104.508 199.421,100.611 204.219,92.373C204.219,92.373 199.681,97.29 196.491,107.347C196.003,108.718 195.725,109.843 195.436,111.092C195.292,111.673 195.153,112.267 195.021,112.876C194.922,113.288 194.814,113.725 194.691,114.194C192.878,121.129 193.131,129.094 193.699,134.968C193.902,137.549 194.048,140.285 194.691,143.071C197.356,154.623 205.586,163.978 205.612,164.074Z" style="fill:rgb(78,78,78);stroke:black;stroke-width:8.88px;"/>
    </g>
    <g transform="matrix(3.86182e-16,-0.900976,0.900976,3.86182e-16,43.4128,293.666)">
        <path d="M194.768,143.36C189.614,152.45 185.432,160.742 177.304,168.629C171.585,174.178 167.921,177.47 157.328,179.965C143.608,183.197 148.041,159.399 147.945,156.997C153.098,147.907 164.801,131.463 163.918,129.8C163.868,129.706 164.303,124.041 153.438,118.457C149.376,116.37 144.584,114.873 139.083,114.697C137.545,114.647 135.985,115.518 134.388,116.94C130.513,112.624 125.689,108.929 119.762,105.864C99.208,95.237 64.449,119.04 43.048,132.944C46.925,66.895 101.307,14.326 168.089,13.34C170.287,13.481 172.456,13.632 174.592,13.793C168.9,14.988 164.283,17.767 161.763,22.927C151.828,43.267 194.136,36.298 221.557,53.765C236.365,63.198 250.569,77.507 264.3,89.975C264.905,90.525 275.035,91.933 287.787,92.494C296.871,92.893 307.285,92.864 316.536,91.789C309.296,99.126 308.317,98.131 297.174,106.13C295.525,107.313 286.251,112.95 282.176,123.119C282.005,123.546 281.843,123.982 281.691,124.426C278.589,133.477 309.753,139.025 309.349,140.544C306.166,142.15 301.919,144.843 296.952,148.07C275.551,161.974 240.792,185.777 220.238,175.15C214.311,172.085 209.487,168.39 205.612,164.074C200.409,158.279 196.918,151.366 194.768,143.36C194.74,142.673 194.129,139.422 193.699,134.968C193.013,126.24 193.713,118.886 195.021,112.876C195.175,112.234 195.306,111.651 195.436,111.092C195.763,109.773 196.118,108.525 196.491,107.347C197.503,104.508 199.421,100.611 204.219,92.373C204.219,92.373 199.681,97.29 196.491,107.347C196.003,108.718 195.725,109.843 195.436,111.092C195.292,111.673 195.153,112.267 195.021,112.876C194.922,113.288 194.814,113.725 194.691,114.194C192.878,121.129 193.131,129.094 193.699,134.968C193.902,137.549 194.226,140.25 194.691,143.071C194.716,143.168 194.742,143.264 194.768,143.36Z" style="fill:white;stroke:black;stroke-width:8.88px;"/>
    </g>
    <g transform="matrix(-0.688636,-8.07536e-17,-8.07536e-17,0.688636,305.743,-21.092)">
        <g transform="matrix(0.785703,0,0,0.785703,34.8592,31.2294)">
            <g transform="matrix(0.809341,0.587339,-0.587339,0.809341,129.4,-84.2449)">
                <path d="M156.198,132.288C166.437,129.174 169.599,130.266 174.077,133.552" style="fill:white;stroke:black;stroke-width:14.79px;stroke-linecap:round;"/>
            </g>
            <g transform="matrix(0.782402,0.622774,1.12341,-1.41136,-130.659,253.175)">
                <path d="M179.546,167.618L157.291,167.618C156.583,166.745 156.216,165.799 156.216,164.842C156.216,161.109 161.684,158.078 168.418,158.078C175.153,158.078 180.62,161.109 180.62,164.842C180.62,165.799 180.254,166.745 179.546,167.618Z"/>
            </g>
        </g>
    </g>
    <g transform="matrix(-0.688636,-8.07536e-17,-8.07536e-17,0.688636,277.102,-21.092)">
        <g transform="matrix(0.785703,0,0,0.785703,34.8592,31.2294)">
            <g transform="matrix(0.809341,0.587339,-0.587339,0.809341,129.4,-84.2449)">
                <path d="M156.198,132.288C166.437,129.174 169.599,130.266 174.077,133.552" style="fill:white;stroke:black;stroke-width:14.79px;stroke-linecap:round;"/>
            </g>
            <g transform="matrix(0.782402,0.622774,1.12341,-1.41136,-130.659,253.175)">
                <path d="M179.546,167.618L157.291,167.618C156.583,166.745 156.216,165.799 156.216,164.842C156.216,161.109 161.684,158.078 168.418,158.078C175.153,158.078 180.62,161.109 180.62,164.842C180.62,165.799 180.254,166.745 179.546,167.618Z"/>
            </g>
        </g>
    </g>
    <g transform="matrix(1.51832,3.7188e-16,-6.65847e-18,0.0271853,-87.9683,77.9667)">
        <path d="M171.52,-70.325C171.572,-70.311 171.624,-70.298 171.677,-70.286L172.573,-66.183L173.142,-54.889L173.759,-31.4L174.211,-1.28L174.488,31.76L174.613,85.173L174.404,135.273L173.826,182.406L173.306,204.474L172.745,218.107C172.711,218.696 172.288,224.65 170.896,226.72C170.662,227.069 170.433,225.689 170.215,222.787C169.6,221.797 169.305,220.507 169.264,220.07L168.484,204.166L167.894,179.182L167.314,129.606L167.13,75.638L167.311,21.97L167.876,-27.074L168.452,-52.036L169.22,-68.442C169.283,-69.193 169.907,-72.46 170.882,-73.789C171.101,-74.088 171.315,-72.877 171.52,-70.325Z" style="fill:rgb(38,38,38);"/>
    </g>
    <g transform="matrix(0.900976,2.20676e-16,-2.20676e-16,0.900976,16.834,13.9128)">
        <path d="M192.339,81.782C189.889,81.8 187.886,79.825 187.868,77.374C187.85,74.924 189.825,72.921 192.275,72.903C203.526,72.822 203.333,72.912 214.696,72.47C217.144,72.374 219.21,74.285 219.305,76.733C219.4,79.182 217.49,81.247 215.042,81.342C203.536,81.791 203.731,81.7 192.339,81.782Z" style="fill:rgb(38,38,38);"/>
    </g>
    <g transform="matrix(0.900976,2.20676e-16,-2.20676e-16,0.900976,16.834,13.9128)">
        <path d="M196.474,72.347C194.173,73.189 191.621,72.005 190.779,69.704C189.936,67.404 191.12,64.851 193.421,64.009C207.483,58.86 207.351,58.975 221.813,54.853C224.169,54.181 226.627,55.549 227.299,57.906C227.971,60.262 226.603,62.72 224.246,63.392C210.1,67.424 210.229,67.31 196.474,72.347Z" style="fill:rgb(38,38,38);"/>
    </g>
    <g transform="matrix(0.900976,2.20676e-16,-2.20676e-16,0.900976,16.834,13.9128)">
        <path d="M151.203,71.068C153.643,71.299 155.436,73.467 155.205,75.906C154.974,78.346 152.806,80.139 150.366,79.908C138.751,78.808 138.928,78.478 127.575,75.829C125.188,75.272 123.703,72.883 124.26,70.497C124.817,68.111 127.206,66.625 129.592,67.182C140.359,69.694 140.188,70.025 151.203,71.068Z" style="fill:rgb(38,38,38);"/>
    </g>
    <g transform="matrix(0.900976,2.20676e-16,-2.20676e-16,0.900976,16.834,13.9128)">
        <path d="M145.518,80.252C147.947,79.928 150.182,81.637 150.505,84.066C150.829,86.495 149.12,88.729 146.691,89.053C143.449,89.485 143.525,89.952 108.128,91.434C105.68,91.536 103.609,89.632 103.506,87.184C103.404,84.736 105.308,82.665 107.756,82.562C142.417,81.111 142.344,80.674 145.518,80.252Z" style="fill:rgb(38,38,38);"/>
    </g>
    <g transform="matrix(0.688636,-3.57998e-18,-3.57998e-18,-0.688636,34.2572,302.092)">
        <g transform="matrix(0.785703,0,0,0.785703,34.8592,31.2294)">
            <g transform="matrix(0.809341,0.587339,-0.587339,0.809341,129.4,-84.2449)">
                <path d="M156.198,132.288C166.437,129.174 169.599,130.266 174.077,133.552" style="fill:white;stroke:black;stroke-width:14.79px;stroke-linecap:round;"/>
            </g>
            <g transform="matrix(0.782402,0.622774,1.12341,-1.41136,-130.659,253.175)">
                <path d="M179.546,167.618L157.291,167.618C156.583,166.745 156.216,165.799 156.216,164.842C156.216,161.109 161.684,158.078 168.418,158.078C175.153,158.078 180.62,161.109 180.62,164.842C180.62,165.799 180.254,166.745 179.546,167.618Z"/>
            </g>
        </g>
    </g>
    <g transform="matrix(0.688636,-3.57998e-18,-3.57998e-18,-0.688636,62.8984,302.092)">
        <g transform="matrix(0.785703,0,0,0.785703,34.8592,31.2294)">
            <g transform="matrix(0.809341,0.587339,-0.587339,0.809341,129.4,-84.2449)">
                <path d="M156.198,132.288C166.437,129.174 169.599,130.266 174.077,133.552" style="fill:white;stroke:black;stroke-width:14.79px;stroke-linecap:round;"/>
            </g>
            <g transform="matrix(0.782402,0.622774,1.12341,-1.41136,-130.659,253.175)">
                <path d="M179.546,167.618L157.291,167.618C156.583,166.745 156.216,165.799 156.216,164.842C156.216,161.109 161.684,158.078 168.418,158.078C175.153,158.078 180.62,161.109 180.62,164.842C180.62,165.799 180.254,166.745 179.546,167.618Z"/>
            </g>
        </g>
    </g>
    <g transform="matrix(-1.51832,-1.8594e-16,3.32923e-18,-0.0271853,427.968,203.033)">
        <path d="M170.215,222.787C169.6,221.797 169.305,220.507 169.264,220.07L168.484,204.166L167.894,179.182L167.314,129.606L167.13,75.638L167.311,21.97L167.876,-27.074L168.452,-52.036L169.22,-68.442C169.283,-69.193 169.907,-72.46 170.882,-73.789C171.101,-74.088 171.315,-72.877 171.52,-70.325C171.572,-70.311 171.624,-70.298 171.677,-70.286L172.573,-66.183L173.142,-54.889L173.759,-31.4L174.211,-1.28L174.488,31.76L174.613,85.173L174.404,135.273L173.826,182.406L173.306,204.474L172.745,218.107C172.711,218.696 172.288,224.65 170.896,226.72C170.662,227.069 170.433,225.689 170.215,222.787Z" style="fill:rgb(38,38,38);"/>
    </g>
    <g transform="matrix(-0.900976,-1.10338e-16,1.10338e-16,-0.900976,323.166,267.087)">
        <path d="M192.339,81.782C189.889,81.8 187.886,79.825 187.868,77.374C187.85,74.924 189.825,72.921 192.275,72.903C203.526,72.822 203.333,72.912 214.696,72.47C217.144,72.374 219.21,74.285 219.305,76.733C219.4,79.182 217.49,81.247 215.042,81.342C203.536,81.791 203.731,81.7 192.339,81.782Z" style="fill:rgb(38,38,38);"/>
    </g>
    <g transform="matrix(-0.900976,-1.10338e-16,1.10338e-16,-0.900976,323.166,267.087)">
        <path d="M196.474,72.347C194.173,73.189 191.621,72.005 190.779,69.704C189.936,67.404 191.12,64.851 193.421,64.009C207.483,58.86 207.351,58.975 221.813,54.853C224.169,54.181 226.627,55.549 227.299,57.906C227.971,60.262 226.603,62.72 224.246,63.392C210.1,67.424 210.229,67.31 196.474,72.347Z" style="fill:rgb(38,38,38);"/>
    </g>
    <g transform="matrix(-0.900976,-1.10338e-16,1.10338e-16,-0.900976,323.166,267.087)">
        <path d="M151.203,71.068C153.643,71.299 155.436,73.467 155.205,75.906C154.974,78.346 152.806,80.139 150.366,79.908C138.751,78.808 138.928,78.478 127.575,75.829C125.188,75.272 123.703,72.883 124.26,70.497C124.817,68.111 127.206,66.625 129.592,67.182C140.359,69.694 140.188,70.025 151.203,71.068Z" style="fill:rgb(38,38,38);"/>
    </g>
    <g transform="matrix(-0.900976,-1.10338e-16,1.10338e-16,-0.900976,323.166,267.087)">
        <path d="M145.518,80.252C147.947,79.928 150.182,81.637 150.505,84.066C150.829,86.495 149.12,88.729 146.691,89.053C143.449,89.485 143.525,89.952 108.128,91.434C105.68,91.536 103.609,89.632 103.506,87.184C103.404,84.736 105.308,82.665 107.756,82.562C142.417,81.111 142.344,80.674 145.518,80.252Z" style="fill:rgb(38,38,38);"/>
    </g>
</svg>
