<?xml version="1.0" encoding="UTF-8" standalone="no"?>
<!DOCTYPE svg PUBLIC "-//W3C//DTD SVG 1.1//EN" "http://www.w3.org/Graphics/SVG/1.1/DTD/svg11.dtd">
<svg width="100%" height="100%" viewBox="0 0 340 281" version="1.1" xmlns="http://www.w3.org/2000/svg" xmlns:xlink="http://www.w3.org/1999/xlink" xml:space="preserve" xmlns:serif="http://www.serif.com/" style="fill-rule:evenodd;clip-rule:evenodd;stroke-linejoin:round;stroke-miterlimit:2;">
    <g transform="matrix(-0.115531,0.431168,0.431168,0.115531,111.848,-6.16493)">
        <path d="M459.491,47.89C402.505,45.129 342.223,77.264 317.275,96.233C314.552,98.302 282.234,130.374 258.125,136.425C258.125,136.425 209.813,144.458 196.628,143.447C181.153,142.262 119.499,127.072 119.499,127.072L51.761,93.936L64.927,140.807C58.431,149.666 48.943,164.861 43.452,196.432C42.629,201.159 49.447,216.611 51.607,220.997C55.517,228.935 26.13,263.318 35.765,283.689C38.337,289.127 65.788,294.222 80.126,287.988C85.851,285.499 86.917,275.842 90.653,273.547C119.112,256.063 119.952,236.767 126.667,235.429C123.631,235.646 113.295,236.241 118.443,235.749C121.564,235.451 124.548,235.433 127.236,235.359C127.042,235.368 126.852,235.392 126.667,235.429C127.316,235.382 127.631,235.353 127.39,235.355C130.778,235.258 133.685,235.062 135.787,234.084C142.139,250.345 158.431,273.819 170.744,284.816C174.457,288.132 186.731,299.861 213.744,293.129C219.732,291.637 231.411,291.288 241.973,291.141C241.973,291.141 291.017,272.36 322.521,281.759C352.93,290.833 351.951,288.997 368.375,296.02C394.029,306.992 449.001,351.884 444.757,360.407C425.532,399.018 458.611,410.846 462.404,402.323C465.075,396.319 472.25,379.719 477.305,363.182C482.607,345.84 485.576,328.567 478.576,323.656C458.606,309.648 402.403,260.822 406.446,245.824C408.373,241.612 409.794,236.807 410.427,231.309L410.514,230.993C454.199,215.441 485.417,209.482 485.417,165.28C485.417,158.587 484.911,152.037 483.943,145.685C491.336,157.015 498.149,170.179 498.09,186.11C498.017,205.968 486.603,212.038 485.417,218.844C482.602,234.991 481.17,239.981 473.732,259.729C464.564,284.066 467.877,298.504 478.608,307.233C488.999,315.686 495.138,303.613 498.202,293.97C506.386,268.214 510.303,255.608 514.299,241.274C530.111,184.555 532.014,176.086 539.524,149.554C539.524,149.554 548.59,117.605 545.396,113.471C543.732,100.834 537.831,85.474 524.465,72.705C513.164,28.517 503.88,5.685 478.171,-24.043C463.568,-40.929 344.282,-101.563 321.765,-39.36C306.257,3.481 429.191,-41.585 459.491,47.89Z" style="fill:white;"/>
        <path d="M532.531,68.122C521.729,26.854 512.937,2.534 484.933,-29.923C471.758,-45.193 392.356,-87.434 345.009,-72.648C341.259,-71.477 321.245,-65.533 313.111,-41.763C308.504,-28.302 313.519,-17.278 328.613,-12.085C349.627,-4.855 387.655,-6.899 417.187,9.533C432.778,18.208 441.155,29.568 445.966,38.861C427.098,39.686 390.816,44.64 345.701,68.109C328.279,77.172 314.41,86.69 309.744,90.918C306.091,94.228 276.924,121.895 256.835,127.496C256.168,127.682 208.015,135.723 196.034,134.39C179.434,132.542 122.636,118.63 122.567,118.597C100.223,107.805 78.005,96.755 55.698,85.887C49.966,83.094 43.158,87.146 42.813,93.447C42.8,93.681 42.732,94.919 43.134,96.36C47.099,110.607 51.158,124.827 55.14,139.069C50.169,146.319 39.847,163.849 34.603,195.011C34.327,196.648 33.145,202.546 42.84,223.408C39.846,234.727 17.002,265.146 27.705,287.609C33.018,298.76 59.082,300.924 71.607,299.32C85.243,297.573 89.013,293.063 91.403,289.58C93.631,286.334 94.862,282.888 96.13,280.692C99.163,278.806 109.539,272.221 118.146,261.789C124.746,253.79 127.373,247.894 129.84,244.217L130.493,244.181C141.339,266.688 159.635,288.959 171.127,296.503C191.021,309.564 213.972,302.027 218.293,301.369C226.949,300.05 241.844,300.284 243.633,299.947C245.454,299.604 270.985,289.385 297.862,288.175C313.13,287.488 320.539,290.553 327.801,292.65C346.97,298.183 352.686,298.822 365.37,304.485C386.85,314.075 426.974,346.16 435.381,359.175C432.026,366.476 424.153,387.434 436.787,403.295C447.215,416.386 465.432,417.345 470.541,406.078C478.42,388.703 483.4,373.51 484.348,370.617C491.028,350.238 495.512,329.149 486.735,319.009C493.321,318.487 500.264,313.717 505.257,300.907C506.427,297.904 516.919,265.248 522.93,243.685C535.752,197.685 535.483,197.62 548.258,151.599C554.203,130.183 554.761,122.167 554.943,119.555C555.259,115.029 554.709,112.397 554.036,110.718C550.597,89.717 540.906,76.791 532.531,68.122ZM126.667,235.429C126.852,235.392 127.042,235.368 127.236,235.359C124.548,235.433 121.564,235.451 118.443,235.749C113.295,236.241 123.631,235.646 126.667,235.429C119.952,236.767 119.112,256.063 90.653,273.547C86.917,275.842 85.851,285.499 80.126,287.988C65.788,294.222 38.337,289.127 35.765,283.689C26.13,263.318 55.517,228.935 51.607,220.997C49.447,216.611 42.629,201.159 43.452,196.432C48.943,164.861 58.431,149.666 64.927,140.807L51.761,93.936L119.499,127.072C119.499,127.072 181.153,142.262 196.628,143.447C209.813,144.458 258.125,136.425 258.125,136.425C282.234,130.374 314.552,98.302 317.275,96.233C342.223,77.264 402.505,45.129 459.491,47.89C429.191,-41.585 306.257,3.481 321.765,-39.36C344.282,-101.563 463.568,-40.929 478.171,-24.043C503.88,5.685 513.164,28.517 524.465,72.705C537.831,85.474 543.732,100.834 545.396,113.471C548.59,117.605 539.524,149.554 539.524,149.554C532.014,176.086 530.111,184.555 514.299,241.274C510.303,255.608 506.386,268.214 498.202,293.97C495.138,303.613 488.999,315.686 478.608,307.233C467.877,298.504 464.564,284.066 473.732,259.729C481.17,239.981 482.602,234.991 485.417,218.844C486.603,212.038 498.017,205.968 498.09,186.11C498.149,170.179 491.336,157.015 483.943,145.685C484.911,152.037 485.417,158.587 485.417,165.28C485.417,209.482 454.199,215.441 410.514,230.993L410.427,231.309C409.794,236.807 408.373,241.612 406.446,245.824C402.403,260.822 458.606,309.648 478.576,323.656C485.576,328.567 482.607,345.84 477.305,363.182C472.25,379.719 465.075,396.319 462.404,402.323C458.611,410.846 425.532,399.018 444.757,360.407C449.001,351.884 394.029,306.992 368.375,296.02C351.951,288.997 352.93,290.833 322.521,281.759C291.017,272.36 241.973,291.141 241.973,291.141C231.411,291.288 219.732,291.637 213.744,293.129C186.731,299.861 174.457,288.132 170.744,284.816C158.431,273.819 142.139,250.345 135.787,234.084C133.685,235.062 130.778,235.258 127.39,235.355C127.631,235.353 127.316,235.382 126.667,235.429ZM461.928,299.036C439.083,279.538 417.867,257.237 415.305,247.882C416.895,244.04 417.793,241.115 418.465,237.713C449.524,226.978 475.22,219.271 487.216,197.304C484.074,205.59 477.967,209.761 476.655,216.946C473.663,233.338 473.404,235.026 465.336,256.597C461.534,266.761 456.269,283.937 461.928,299.036Z"/>
    </g>
    <g transform="matrix(0.754169,-0.52426,0.411389,0.851686,38.241,110.075)">
        <path d="M183.136,36.738C182.885,36.491 182.36,35.991 181.913,35.679C180.397,34.618 178.274,33.602 176.06,32.953C174.246,32.422 172.364,32.129 170.719,32.342C169.259,32.53 167.727,31.494 167.298,30.029C166.87,28.564 167.707,27.222 169.166,27.033C174.62,26.328 181.906,29.278 185.527,32.16C188.104,34.212 188.945,36.507 188.574,38.001C188.233,39.371 186.753,40.035 185.27,39.482C184.05,39.028 183.207,37.89 183.136,36.738Z"/>
    </g>
    <g transform="matrix(1.34171,0,0,2.99418,-24.0669,-128.304)">
        <ellipse cx="159.99" cy="58.165" rx="4.776" ry="1.877"/>
    </g>
    <g transform="matrix(1,0,0,1,11.0408,9.92822)">
        <path d="M218.352,28.295L218.473,28.197L219.166,27.86L219.896,27.692L220.917,27.723L221.772,27.976C222.691,28.361 223.721,29.231 224.474,30.443C225.638,32.318 226.097,34.922 225,37.064C224.372,38.292 222.864,38.779 221.636,38.15C221.577,38.119 221.519,38.087 221.463,38.053L221.067,38.402L220.496,38.692L219.785,38.835L219.084,38.774L218.528,38.573C216.45,37.533 214.743,36.045 213.923,34.606C213.632,34.095 213.434,33.58 213.325,33.074L213.222,32.181L213.311,31.239L213.615,30.316L214.112,29.487C214.446,29.043 214.895,28.61 215.491,28.217C216.391,27.625 217.533,27.69 218.352,28.295Z"/>
    </g>
    <g transform="matrix(5.00714e-17,0.817728,-1.04171,6.37862e-17,316.592,-10.685)">
        <path d="M52.311,58.41L52.311,65.892L37.648,54.382L52.311,42.872L52.311,50.353L304.043,50.353L304.043,42.872L318.706,54.382L304.043,65.892L304.043,58.41L52.311,58.41Z"/>
    </g>
</svg>
