<?xml version="1.0" encoding="UTF-8" standalone="no"?>
<!DOCTYPE svg PUBLIC "-//W3C//DTD SVG 1.1//EN" "http://www.w3.org/Graphics/SVG/1.1/DTD/svg11.dtd">
<svg width="100%" height="100%" viewBox="0 0 340 281" version="1.1" xmlns="http://www.w3.org/2000/svg" xmlns:xlink="http://www.w3.org/1999/xlink" xml:space="preserve" xmlns:serif="http://www.serif.com/" style="fill-rule:evenodd;clip-rule:evenodd;stroke-linecap:round;stroke-linejoin:round;stroke-miterlimit:1.5;">
    <g transform="matrix(1,0,0,1,0,13.0949)">
        <g transform="matrix(0.440488,-0.440488,-0.849511,-0.849511,198.268,352.065)">
            <path d="M173.159,188.857C179.438,181.214 184.797,179.996 188.302,178.852C203.996,173.728 228.79,179.15 242.754,177.994C256.673,176.842 268.146,164.405 239.618,154.874C226.359,150.444 208.268,147.898 196.435,148.649C171.489,150.23 155.176,155.356 135.076,163.64C116.482,171.303 105.897,177.078 96.773,185.323C86.487,194.619 86.652,209.757 86.779,211.473C88.699,237.456 110.093,232.435 131.398,232.435C152.703,232.435 171.8,226.942 170,199.868C169.849,197.595 168.805,194.157 173.159,188.857Z" style="fill:rgb(196,196,196);"/>
            <path d="M173.159,188.857C179.438,181.214 184.797,179.996 188.302,178.852C203.996,173.728 228.79,179.15 242.754,177.994C256.673,176.842 268.146,164.405 239.618,154.874C226.359,150.444 208.268,147.898 196.435,148.649C171.489,150.23 155.176,155.356 135.076,163.64C116.482,171.303 105.897,177.078 96.773,185.323C86.487,194.619 86.652,209.757 86.779,211.473C88.699,237.456 110.093,232.435 131.398,232.435C152.703,232.435 171.8,226.942 170,199.868C169.849,197.595 168.805,194.157 173.159,188.857ZM161.344,186.247C155.861,192.921 156.975,197.235 157.165,200.097C158.035,213.178 154.607,220.233 146.612,223.6C142.324,225.406 136.92,225.776 131.398,225.776C126.146,225.776 120.888,226.066 115.903,226.149C112.186,226.211 108.576,226.481 105.934,225.205C101.671,223.145 100.182,218.927 99.612,211.218C99.503,209.738 99.042,196.653 107.912,188.637C116.26,181.094 126.056,175.864 143.066,168.853C161.102,161.42 175.609,156.678 197.994,155.258C207.524,154.654 221.984,156.904 232.663,160.472C242.392,163.722 245.946,166.984 243.916,169.682C243.282,170.525 242.212,171.296 240.729,171.419C233.049,172.054 221.826,170.336 210.944,170.021C200.266,169.712 189.93,170.452 181.46,173.217C176.86,174.718 169.585,176.217 161.344,186.247Z"/>
        </g>
        <g transform="matrix(-0.111329,0.677503,0.677503,0.111329,-10.049,-48.4288)">
            <path d="M135.787,234.084C128.668,237.396 120.796,239.236 112.521,239.236C109.506,239.236 106.583,238.495 103.655,238.522C77.318,238.761 136.97,273.36 129.734,258.67C127.574,254.284 224.704,295.459 123.003,238.234C202.655,266.109 123.031,229.557 129.657,223.663C131.684,200.329 109.754,231.886 129.657,223.663L132.325,202.552L142.136,178.235L136.643,191.85L148.613,130.837C150.754,132.648 152.769,134.616 154.644,136.725C166.876,139.678 181.153,142.262 196.628,143.447C209.813,144.458 237.2,139.255 243.801,134.236C262.954,119.674 282.41,110.164 295.563,107.458C302.937,102.295 309.097,91.727 332.359,94.893C342.98,96.338 362.827,107.246 371.928,127.322C387.287,161.206 391.873,183.305 392.148,193.347C392.783,216.521 347.166,281.834 339.624,285.576C332.1,289.309 256.59,378.077 307.119,280.235C309.18,276.244 286.892,294.695 282.202,310.796C279.071,321.55 274.936,329.178 265.14,324.366C255.662,319.711 243.888,307.857 238.294,289.163C235.162,278.697 234.905,262.313 236.868,245.334C223.688,244.142 209.195,242.367 198.234,240.013C195.303,239.384 192.541,238.782 189.927,238.203C188.654,246.294 207.615,252.06 215.945,265.253C220.888,273.082 224.97,274.311 231.922,289.572C236.565,299.765 238.409,308.243 227.847,310.988C217.627,313.645 200.969,312.344 184.533,301.828C167.938,291.21 145.875,259.911 135.787,234.084Z" style="fill:rgb(226,243,241);"/>
            <path d="M125.423,188.519L121.52,198.193C121.145,199.122 120.891,200.097 120.765,201.091L120.234,205.294L117.662,206.74L113.386,211.347L111.251,215.129L109.815,219.845L109.805,225.045L110.647,227.503C108.251,227.312 105.902,226.849 103.549,226.87C99.165,226.91 96.063,227.71 93.963,228.634L89.608,231.491L87.023,234.785L85.673,238.154L85.246,241.511L85.641,244.958L87.078,248.807C89.94,254.369 100.531,263.026 110.714,268.328C117.679,271.954 124.408,273.932 128.103,273.954L132.23,273.439L135.73,271.937C138.056,272.655 140.654,273.469 142.93,274.212L144.42,274.697C155.265,290.847 167.817,304.965 178.253,311.642C198.148,324.372 218.407,325.481 230.778,322.266C233.659,321.517 236.009,320.476 237.934,319.283L239.952,317.742C246.36,326.025 253.664,331.711 260.003,334.825C262.675,336.137 265.135,336.882 267.373,337.234L271.435,337.472L275.549,336.85L279.131,335.494L282.217,333.572L282.411,333.374L285.158,335.835L289.991,337.526L293.101,337.662L296.729,337.028C298.549,336.509 300.729,335.561 303.12,334.117C315.017,326.931 337.746,302.283 345.32,295.817C345.425,295.727 345.572,295.608 345.67,295.529C347.316,294.519 349.732,292.59 352.463,289.583C357.041,284.543 363.964,275.453 371.219,264.676C382.006,248.654 393.534,228.885 399.38,213.488C402.428,205.46 403.941,198.346 403.795,193.028C403.502,182.317 398.923,158.651 382.54,122.512C371.436,98.016 346.889,85.111 333.931,83.347C307.41,79.738 298.93,90.145 290.588,96.646C276.366,100.215 256.358,110.051 236.748,124.961C234.872,126.388 230.489,127.417 225.477,128.595C216.087,130.801 204.54,132.368 197.518,131.83C184.113,130.803 171.649,128.675 160.727,126.185C159.258,124.702 157.727,123.285 156.139,121.941C152.985,119.273 148.654,118.474 144.756,119.842C140.857,121.21 137.975,124.539 137.179,128.593L125.423,188.519ZM224.23,256.741C223.964,256.38 223.693,256.025 223.416,255.673L224.281,255.771L224.23,256.741ZM118.699,262.192L119.282,263.818C119.001,263.249 118.815,262.707 118.699,262.192ZM129.657,223.663C109.754,231.886 131.684,200.329 129.657,223.663ZM136.643,191.85L148.613,130.837C150.754,132.648 152.769,134.616 154.644,136.725C166.876,139.678 181.153,142.262 196.628,143.447C209.813,144.458 237.2,139.255 243.801,134.236C262.954,119.674 282.41,110.164 295.563,107.458C302.937,102.295 309.097,91.727 332.359,94.893C342.98,96.338 362.827,107.246 371.928,127.322C387.287,161.206 391.873,183.305 392.148,193.347C392.783,216.521 347.166,281.834 339.624,285.576C332.1,289.309 256.59,378.077 307.119,280.235C309.18,276.244 286.892,294.695 282.202,310.796C279.071,321.55 274.936,329.178 265.14,324.366C255.662,319.711 243.888,307.857 238.294,289.163C235.162,278.697 234.905,262.313 236.868,245.334C223.688,244.142 209.195,242.367 198.234,240.013C195.303,239.384 192.541,238.782 189.927,238.203C188.654,246.294 207.615,252.06 215.945,265.253C220.888,273.082 224.97,274.311 231.922,289.572C236.565,299.765 238.409,308.243 227.847,310.988C217.627,313.645 200.969,312.344 184.533,301.828C174.319,295.293 162.035,280.924 151.745,264.819C169.193,270.383 184.419,274.106 142.959,249.688C141.972,247.801 141.027,245.916 140.129,244.042C189.638,260.068 123.599,229.052 129.657,223.663L132.325,202.552L136.643,191.85ZM123.003,238.234C130.77,242.605 137.378,246.401 142.959,249.688C145.622,254.778 148.59,259.88 151.745,264.819C140.793,261.326 128.965,257.108 129.734,258.67C136.97,273.36 77.318,238.761 103.655,238.522C106.583,238.495 109.506,239.236 112.521,239.236C116.1,239.236 119.603,238.892 123.003,238.234ZM140.129,244.042C135.488,242.539 129.83,240.623 123.003,238.234C127.464,237.369 131.746,235.964 135.787,234.084C137.056,237.334 138.515,240.67 140.129,244.042Z"/>
        </g>
        <g transform="matrix(1,0,0,1,-1.06007,-8.92128)">
            <g transform="matrix(1.24635,-0.333959,-0.402622,-1.50261,82.8214,377.133)">
                <path d="M39.583,181.666C43.766,203.283 59.79,208.59 85.11,208.59C122.51,208.59 128.733,190.381 130.637,181.666C134.945,177.416 137.21,172.631 137.21,167.763C137.21,157.676 127.673,148.801 113.283,143.71C105.159,140.836 95.486,139.167 85.11,139.167C56.355,139.167 33.01,151.98 33.01,167.763C33.01,172.631 35.275,177.416 39.583,181.666Z" style="fill:white;"/>
                <clipPath id="_clip1">
                    <path d="M39.583,181.666C43.766,203.283 59.79,208.59 85.11,208.59C122.51,208.59 128.733,190.381 130.637,181.666C134.945,177.416 137.21,172.631 137.21,167.763C137.21,157.676 127.673,148.801 113.283,143.71C105.159,140.836 95.486,139.167 85.11,139.167C56.355,139.167 33.01,151.98 33.01,167.763C33.01,172.631 35.275,177.416 39.583,181.666Z"/>
                </clipPath>
                <g clip-path="url(#_clip1)">
                    <g transform="matrix(0.875864,-1.087e-16,1.31049e-16,-1.36104,-73.0889,347.228)">
                        <path d="M165.443,169.444C150.832,161.518 153.02,175.757 136.948,180.133C122.171,184.156 89.15,176.385 102.506,152.002C113.264,132.362 129.954,77.8 177.713,82.828C198.299,84.995 256.933,120.561 259.251,144.181C261.561,167.71 232.345,198.267 209.141,172.552C209.016,172.413 202.464,166.57 196.106,169.627C192.328,171.443 182.361,176.252 178.574,177.375C169.393,180.099 174.034,173.64 165.443,169.444Z" style="fill:rgb(226,243,241);"/>
                        <clipPath id="_clip2">
                            <path d="M165.443,169.444C150.832,161.518 153.02,175.757 136.948,180.133C122.171,184.156 89.15,176.385 102.506,152.002C113.264,132.362 129.954,77.8 177.713,82.828C198.299,84.995 256.933,120.561 259.251,144.181C261.561,167.71 232.345,198.267 209.141,172.552C209.016,172.413 202.464,166.57 196.106,169.627C192.328,171.443 182.361,176.252 178.574,177.375C169.393,180.099 174.034,173.64 165.443,169.444Z"/>
                        </clipPath>
                        <g clip-path="url(#_clip2)">
                            <g transform="matrix(0.866944,-0.0945209,0.177078,0.462757,46.4242,94.9742)">
                                <path d="M103.773,127.289C110.731,135.111 123.08,131.708 124.528,130.051C126.735,127.525 125.618,124.086 124.956,121.818C124.482,120.195 127.363,126.479 129.208,128.388C135.934,135.343 142.671,129.972 147.06,120.371" style="fill:none;stroke:black;stroke-width:8px;"/>
                            </g>
                        </g>
                    </g>
                </g>
                <path d="M33.745,183.848L33.745,183.849C35.805,193.144 40.014,199.658 45.877,204.229C54.821,211.202 68.017,213.733 85.11,213.733C106.202,213.733 118.381,208.304 125.677,201.94C132.555,195.942 135.192,188.915 136.432,183.895C141.062,178.915 143.41,173.37 143.41,167.763C143.41,155.85 132.71,144.992 115.716,138.98C106.888,135.857 96.384,134.024 85.11,134.024C66.127,134.024 49.349,139.25 38.914,147.061C31.19,152.843 26.81,160.05 26.81,167.763C26.81,173.352 29.144,178.88 33.745,183.848ZM39.583,181.666C35.275,177.416 33.01,172.631 33.01,167.763C33.01,151.98 56.355,139.167 85.11,139.167C95.486,139.167 105.159,140.836 113.283,143.71C127.673,148.801 137.21,157.676 137.21,167.763C137.21,172.631 134.945,177.416 130.637,181.666C128.733,190.381 122.51,208.59 85.11,208.59C59.79,208.59 43.766,203.283 39.583,181.666Z"/>
            </g>
            <g transform="matrix(0.61911,-0.16589,0.16589,0.61911,9.42629,16.9631)">
                <path d="M95.933,67.945C86.628,47.254 57.513,53.421 44.097,60.14C9.698,77.365 -5.552,96.942 -9.532,107.598C-25.817,151.197 -12.478,177.278 4.914,184.068C18.53,189.384 31.683,166.256 42.017,154.096C46.358,148.987 57.107,118.608 64.131,108.447C71.905,97.203 83.845,89.314 89.484,100.817" style="fill:rgb(226,243,241);stroke:black;stroke-width:12.48px;"/>
            </g>
            <g transform="matrix(1.25022,0.323562,-0.172501,0.666533,2.61082,21.1103)">
                <path d="M76.422,101.858C79.21,92.243 86.857,84.456 91.227,84.075C92.994,83.921 90.166,83.422 93.672,76.501" style="fill:none;stroke:black;stroke-width:7.73px;"/>
            </g>
            <g transform="matrix(-0.439156,1.21445,1.21445,0.439156,69.4216,-52.6656)">
                <path d="M72.546,87.595C80.888,78.412 80.35,80.314 84.12,77.943C87.887,75.575 90.166,83.422 93.672,76.501" style="fill:none;stroke:black;stroke-width:6.19px;"/>
            </g>
            <g transform="matrix(-0.61911,0.16589,0.16589,0.61911,175.688,-27.5865)">
                <path d="M81.586,71.042C66.759,79.367 66.553,79.638 54.258,88.237C21.111,111.419 -10.729,161.656 -6.44,202.154C-2.766,236.853 55.953,221.63 44.623,171.258C42.631,162.403 41.643,156.715 41.643,150.411C41.643,139.269 43.475,130.69 50.733,125.112" style="fill:rgb(196,196,196);stroke:black;stroke-width:12.48px;"/>
            </g>
            <g transform="matrix(-1.24741,0.334243,-0.334243,-1.24741,264.247,168.158)">
                <g transform="matrix(1.19989,-0.321508,0.318517,1.18872,-170.358,-51.8302)">
                    <path d="M188.409,156.22L175.717,156.22C175.074,155.479 174.735,154.638 174.735,153.782C174.735,151.091 178.019,148.906 182.063,148.906C186.107,148.906 189.391,151.091 189.391,153.782C189.391,154.638 189.052,155.479 188.409,156.22Z"/>
                </g>
            </g>
        </g>
    </g>
    <g transform="matrix(1,0,0,1,-37.1224,-36.2937)">
        <g transform="matrix(-0.355944,0.58712,-0.58712,-0.355944,435.527,138.177)">
            <path d="M215.982,258.086C202.802,256.894 141.64,220.422 157.115,221.607C170.3,222.618 237.2,139.255 243.801,134.236C262.954,119.674 315.693,72.81 360.371,130.029C367.481,139.134 424.298,244.097 429.406,254.269C435.572,266.547 439.84,279.59 440.115,289.633C440.75,312.807 427.996,323.169 420.454,326.91C412.93,330.643 398.465,325.26 401.084,310.237C401.855,305.811 409.275,301.865 409.323,288.955C409.361,278.597 404.932,270.039 400.125,262.673C400.755,266.803 401.084,271.061 401.084,275.412C401.084,300.649 394.847,259.168 356.314,252.967C319.477,247.039 301.652,243.066 294.158,242.015C267.687,238.301 266.072,278.134 271.486,283.323C276.196,287.837 286.892,294.695 282.202,310.796C279.071,321.55 274.936,329.178 265.14,324.366C255.662,319.711 243.814,308.351 232.341,292.568C218.677,273.77 214.019,275.066 215.982,258.086Z" style="fill:white;"/>
            <path d="M396.67,294.61L394.594,293.993L390.797,291.431C389.288,290.039 386.949,286.848 383.692,282.811C378.507,276.384 369.669,266.918 354.463,264.471C317.763,258.565 300.005,254.601 292.54,253.553C287.112,252.792 284.325,256.56 282.744,260.588C280.77,265.616 280.976,273.877 281.09,276.353C288.071,282.796 299.514,293.026 293.389,314.054C291.633,320.086 289.439,325.293 286.749,328.93L282.217,333.572L279.131,335.494L275.549,336.85L271.435,337.472L267.373,337.234C265.135,336.882 262.675,336.137 260.003,334.825C249.365,329.6 235.794,317.133 222.917,299.419C217.544,292.028 213.581,287.804 210.891,284.32C206.485,278.612 204.112,274.326 203.872,266.482C198.996,264.582 193.235,261.941 187.267,258.816C170.983,250.287 152.832,238.501 147.498,232.767L145.184,229.811L143.588,226.425L142.975,222.76L143.338,219.502L145.27,215.307L148.292,212.324L152.216,210.481L155.385,210.212C156.259,209.553 165.442,202.58 172.189,195.869C197.196,170.992 232.053,128.531 236.748,124.961C258.558,108.379 318.68,57.704 369.555,122.858C376.78,132.11 434.629,238.704 439.819,249.041C446.828,262.999 451.45,277.897 451.763,289.314C452.586,319.382 435.418,332.493 425.633,337.348C415.887,342.183 399.735,339.11 392.651,327.082C389.816,322.269 388.248,316.022 389.605,308.236L390.556,304.89L392.34,301.406C393.397,299.709 395.442,297.821 396.67,294.61ZM215.982,258.086C214.019,275.066 218.677,273.77 232.341,292.568C243.814,308.351 255.662,319.711 265.14,324.366C274.936,329.178 279.071,321.55 282.202,310.796C286.892,294.695 276.196,287.837 271.486,283.323C266.072,278.134 267.687,238.301 294.158,242.015C301.652,243.066 319.477,247.039 356.314,252.967C394.847,259.168 401.084,300.649 401.084,275.412C401.084,271.061 400.755,266.803 400.125,262.673C404.932,270.039 409.361,278.597 409.323,288.955C409.275,301.865 401.855,305.811 401.084,310.237C398.465,325.26 412.93,330.643 420.454,326.91C427.996,323.169 440.75,312.807 440.115,289.633C439.84,279.59 435.572,266.547 429.406,254.269C424.298,244.097 367.481,139.134 360.371,130.029C315.693,72.81 262.954,119.674 243.801,134.236C237.2,139.255 170.3,222.618 157.115,221.607C141.64,220.422 202.802,256.894 215.982,258.086ZM155.991,210.161L158.005,209.99C157.564,209.956 156.632,210.07 155.991,210.161ZM158.248,233.108L156.225,233.225C156.984,233.283 157.655,233.23 158.248,233.108Z"/>
        </g>
        <g transform="matrix(-0.786749,-0.617273,-0.617273,0.786749,374.366,120.193)">
            <g transform="matrix(1.24635,-0.333959,-0.402622,-1.50261,82.8214,377.133)">
                <path d="M39.583,181.666C43.766,203.283 59.79,208.59 85.11,208.59C122.51,208.59 128.733,190.381 130.637,181.666C134.945,177.416 137.21,172.631 137.21,167.763C137.21,151.98 113.865,139.167 85.11,139.167C56.355,139.167 33.01,151.98 33.01,167.763C33.01,172.631 35.275,177.416 39.583,181.666Z" style="fill:white;"/>
                <path d="M33.745,183.849L33.744,183.848C29.144,178.88 26.81,173.352 26.81,167.763C26.81,160.05 31.19,152.843 38.914,147.061C49.349,139.25 66.127,134.024 85.11,134.024C104.092,134.024 120.871,139.25 131.306,147.061C139.03,152.843 143.41,160.05 143.41,167.763C143.41,173.37 141.062,178.915 136.433,183.894C135.191,188.915 132.555,195.942 125.677,201.94C118.381,208.304 106.202,213.733 85.11,213.733C68.017,213.733 54.821,211.202 45.877,204.229C40.014,199.658 35.805,193.144 33.745,183.849ZM39.583,181.666C43.766,203.283 59.79,208.59 85.11,208.59C122.51,208.59 128.733,190.381 130.637,181.666C134.945,177.416 137.21,172.631 137.21,167.763C137.21,151.98 113.865,139.167 85.11,139.167C56.355,139.167 33.01,151.98 33.01,167.763C33.01,172.631 35.275,177.416 39.583,181.666Z"/>
            </g>
            <g transform="matrix(0.61911,-0.16589,0.16589,0.61911,9.42629,16.9631)">
                <path d="M95.933,67.945C86.628,47.254 57.513,53.421 44.097,60.14C9.698,77.365 -5.552,96.942 -9.532,107.598C-25.817,151.197 -12.478,177.278 4.914,184.068C18.53,189.384 31.683,166.256 42.017,154.096C46.358,148.987 57.107,118.608 64.131,108.447C71.905,97.203 83.845,89.314 89.484,100.817" style="fill:white;stroke:black;stroke-width:12.48px;"/>
            </g>
            <g transform="matrix(1.29141,0,0,1.29141,-8.11779,-1.29118)">
                <path d="M72.546,87.595C77.9,85.012 82.639,88.781 86.982,87.795C91.948,86.668 90.166,83.422 93.672,76.501" style="fill:none;stroke:black;stroke-width:6.19px;"/>
            </g>
            <g transform="matrix(-0.795127,1.01761,1.01761,0.795127,125.799,-53.4413)">
                <path d="M72.546,87.595C80.888,78.412 85.338,86.234 89.108,83.864C92.874,81.496 90.166,83.422 93.672,76.501" style="fill:none;stroke:black;stroke-width:6.19px;"/>
            </g>
            <g transform="matrix(-0.61911,0.16589,0.16589,0.61911,175.688,-27.5865)">
                <path d="M83.914,67.826C67.081,74.237 60.597,80.603 50.474,90.161C30.047,109.445 -10.729,161.656 -6.44,202.154C-2.766,236.853 55.953,221.63 44.623,171.258C42.631,162.403 41.643,156.715 41.643,150.411C41.643,139.269 43.475,130.69 50.733,125.112" style="fill:white;stroke:black;stroke-width:12.48px;"/>
            </g>
            <g transform="matrix(-0.786749,-0.617273,-0.617273,0.786749,317.115,142.164)">
                <path d="M108.552,154.663C125.781,168.335 129.322,162.736 145.62,160.955C155.049,159.925 205.399,168.681 191.532,184.881C189.826,186.874 173.335,198.944 160.775,193.502C142.332,185.511 141.588,194.629 121.513,193.722C107.512,193.09 100.474,190.468 95.436,183.392C91.503,177.869 87.097,170.423 73.72,171.775" style="fill:rgb(226,243,241);stroke:black;stroke-width:8px;"/>
            </g>
            <g transform="matrix(1.29141,0,0,1.29141,1.32915,22.7033)">
                <g transform="matrix(1.19989,-0.321508,0.508324,1.89709,-198.622,-157.31)">
                    <path d="M188.409,156.22L175.717,156.22C175.074,155.479 174.735,154.638 174.735,153.782C174.735,151.091 178.019,148.906 182.063,148.906C186.107,148.906 189.391,151.091 189.391,153.782C189.391,154.638 189.052,155.479 188.409,156.22Z"/>
                </g>
                <g>
                    <g transform="matrix(-0.447257,0.119842,-0.051674,-0.19285,224.371,78.7005)">
                        <path d="M222.732,140.821C227.845,135.094 239.143,133.011 245.605,136.977C251.991,140.897 256.31,148.96 261.799,148.506C267.39,148.044 271.17,138.813 281.068,134.766C285.382,133.003 294.108,133.12 298.749,138.57" style="fill:white;stroke:black;stroke-width:17.37px;"/>
                    </g>
                    <g transform="matrix(0.0509703,0.190224,-0.479404,0.128456,153.422,7.91124)">
                        <path d="M234.459,142.502C218.965,142.294 228.774,142.327 253.61,142.502L280.063,142.738" style="fill:white;stroke:black;stroke-width:16.41px;"/>
                    </g>
                </g>
            </g>
        </g>
    </g>
</svg>
