<?xml version="1.0" encoding="UTF-8" standalone="no"?>
<!DOCTYPE svg PUBLIC "-//W3C//DTD SVG 1.1//EN" "http://www.w3.org/Graphics/SVG/1.1/DTD/svg11.dtd">
<svg width="100%" height="100%" viewBox="0 0 120 100" version="1.1" xmlns="http://www.w3.org/2000/svg" xmlns:xlink="http://www.w3.org/1999/xlink" xml:space="preserve" xmlns:serif="http://www.serif.com/" style="fill-rule:evenodd;clip-rule:evenodd;stroke-linejoin:round;stroke-miterlimit:2;">
    <g transform="matrix(1,0,0,1,-106.269,-45.9579)">
        <g transform="matrix(1.01642,0,0,1.01642,30.6807,-8.95683)">
            <circle cx="131.708" cy="103.618" r="45.657" style="fill:rgb(127,255,254);"/>
        </g>
        <g transform="matrix(1,0,0,1,-4.94674,-9.1478)">
            <circle cx="169.498" cy="105.511" r="38.022" style="fill:rgb(0,113,157);"/>
        </g>
        <g transform="matrix(0.703776,-0.486143,0.492467,0.712931,-31.9232,96.1893)">
            <path d="M171.526,101.005L171.526,131.271C171.526,133.411 169.766,135.149 167.598,135.149L159.741,135.149C157.573,135.149 155.813,133.411 155.813,131.271L155.813,101.005C155.813,98.864 157.573,97.127 159.741,97.127L167.598,97.127C169.766,97.127 171.526,98.864 171.526,101.005Z" style="fill:rgb(127,255,254);"/>
        </g>
        <g transform="matrix(0.684016,-0.472493,0.492467,0.712931,-16.2312,85.3498)">
            <path d="M169.05,134.883C168.6,135.055 168.111,135.149 167.598,135.149L159.741,135.149C157.573,135.149 155.813,133.46 155.813,131.38L155.813,100.896C155.813,98.815 157.573,97.127 159.741,97.127L167.598,97.127C169.766,97.127 171.526,98.815 171.526,100.896L171.526,125.084C170.096,125.472 169.047,126.734 169.047,128.23L169.047,134.769C169.047,134.807 169.048,134.845 169.05,134.883Z" style="fill:rgb(127,255,254);"/>
        </g>
        <g transform="matrix(0.593318,-0.409842,0.341343,0.494153,24.8814,88.339)">
            <path d="M171.526,101.843L171.526,130.432C171.526,133.035 169.766,135.149 167.598,135.149L159.741,135.149C157.573,135.149 155.813,133.035 155.813,130.432L155.813,101.843C155.813,99.24 157.573,97.127 159.741,97.127L167.598,97.127C169.766,97.127 171.526,99.24 171.526,101.843Z" style="fill:rgb(127,255,254);"/>
        </g>
        <g transform="matrix(0.343547,0.497344,-0.693249,0.478871,203.531,-47.756)">
            <path d="M197.512,150.364C193.01,152.008 193.297,164.113 193.297,164.113C193.297,165.66 191.546,166.916 189.39,166.916L181.575,166.916C179.419,166.916 177.668,165.66 177.668,164.113L177.668,114.608C177.668,112.543 171.526,112.609 171.526,114.608L171.526,132.331C171.526,133.886 169.766,135.149 167.598,135.149L159.741,135.149C157.573,135.149 155.813,133.886 155.813,132.331L155.813,99.945C155.813,98.389 157.573,97.127 159.741,97.127C159.741,97.127 183.797,104.798 189.39,106.893C190.891,107.455 193.297,108.149 193.297,109.696C193.297,109.696 193.979,119.568 197.775,120.74C204.042,122.674 230.896,121.3 230.896,121.3L229.659,150.836C229.659,150.836 203.573,148.151 197.512,150.364Z" style="fill:rgb(127,255,254);"/>
        </g>
        <g transform="matrix(0.593318,-0.409842,0.341343,0.494153,35.7589,80.8253)">
            <path d="M171.526,101.843L171.526,130.432C171.526,133.035 169.766,135.149 167.598,135.149L159.741,135.149C157.573,135.149 155.813,133.035 155.813,130.432L155.813,101.843C155.813,99.24 157.573,97.127 159.741,97.127L167.598,97.127C169.766,97.127 171.526,99.24 171.526,101.843Z" style="fill:rgb(127,255,254);"/>
        </g>
    </g>
</svg>
