<?xml version="1.0" encoding="UTF-8" standalone="no"?>
<!DOCTYPE svg PUBLIC "-//W3C//DTD SVG 1.1//EN" "http://www.w3.org/Graphics/SVG/1.1/DTD/svg11.dtd">
<svg width="100%" height="100%" viewBox="0 0 340 281" version="1.1" xmlns="http://www.w3.org/2000/svg" xmlns:xlink="http://www.w3.org/1999/xlink" xml:space="preserve" xmlns:serif="http://www.serif.com/" style="fill-rule:evenodd;clip-rule:evenodd;stroke-linecap:round;stroke-linejoin:round;stroke-miterlimit:1.5;">
    <g transform="matrix(2.69734,-2.65544e-16,2.65544e-16,-4.86568,-326.96,940.816)">
        <path d="M168.418,156.434C160.047,156.434 153.25,160.201 153.25,164.842C153.25,169.483 160.047,173.251 168.418,173.251C176.79,173.251 183.586,169.483 183.586,164.842C183.586,160.201 176.79,156.434 168.418,156.434ZM168.418,158.078C175.153,158.078 180.62,161.109 180.62,164.842C180.62,168.576 175.153,171.606 168.418,171.606C161.684,171.606 156.216,168.576 156.216,164.842C156.216,161.109 161.684,158.078 168.418,158.078Z"/>
    </g>
    <g transform="matrix(1.76323,0,0,1.76323,-164.603,-108.091)">
        <g transform="matrix(-1.52913,-0.583241,-0.46443,1.21763,464.785,77.32)">
            <path d="M123.742,62.439C123.742,62.439 132.852,69.544 139.453,79.867C146.557,90.978 150.044,106.575 150.044,106.575L126.205,105.696C122.908,95.459 119.93,77.08 123.742,62.439Z" style="fill:rgb(226,243,241);"/>
            <clipPath id="_clip1">
                <path d="M123.742,62.439C123.742,62.439 132.852,69.544 139.453,79.867C146.557,90.978 150.044,106.575 150.044,106.575L126.205,105.696C122.908,95.459 119.93,77.08 123.742,62.439Z"/>
            </clipPath>
            <g clip-path="url(#_clip1)">
                <g transform="matrix(-0.292379,-0.325858,-0.259478,0.367176,219.829,146.706)">
                    <path d="M196.287,68.261C218.981,58.964 328.983,22.748 332.365,28.492C339.498,40.607 318.899,103.51 286.962,108.717C251.096,114.565 249.452,114.213 230.839,98.525" style="fill:white;stroke:black;stroke-width:7.09px;"/>
                </g>
                <g transform="matrix(0.292379,0.325858,-0.259478,0.367176,127.396,43.6893)">
                    <path d="M223.378,72.713C310.932,36.844 326.771,8.349 327.985,38.774C328.545,52.822 318.899,103.51 286.962,108.717C251.096,114.565 249.452,114.213 230.839,98.525" style="fill:white;stroke:black;stroke-width:7.09px;"/>
                </g>
            </g>
            <path d="M121.107,61.357C117.085,76.804 120.156,96.2 123.635,107.002C124.047,108.282 125.024,109.136 126.124,109.176L149.963,110.055C150.845,110.088 151.686,109.592 152.229,108.719C152.772,107.846 152.952,106.701 152.713,105.634C152.713,105.634 149.05,89.317 141.614,77.688C134.719,66.905 125.205,59.481 125.205,59.481C124.482,58.917 123.592,58.801 122.793,59.167C121.993,59.534 121.371,60.341 121.107,61.357ZM123.742,62.439C123.742,62.439 132.852,69.544 139.453,79.867C146.557,90.978 150.044,106.575 150.044,106.575L126.205,105.696C122.908,95.459 119.93,77.08 123.742,62.439Z"/>
        </g>
        <g transform="matrix(1.52913,-0.583241,0.46443,1.21763,-93.0829,77.32)">
            <path d="M123.742,62.439C123.742,62.439 132.852,69.544 139.453,79.867C146.557,90.978 150.044,106.575 150.044,106.575L126.205,105.696C122.908,95.459 119.93,77.08 123.742,62.439Z" style="fill:rgb(226,243,241);"/>
            <clipPath id="_clip2">
                <path d="M123.742,62.439C123.742,62.439 132.852,69.544 139.453,79.867C146.557,90.978 150.044,106.575 150.044,106.575L126.205,105.696C122.908,95.459 119.93,77.08 123.742,62.439Z"/>
            </clipPath>
            <g clip-path="url(#_clip2)">
                <g transform="matrix(-0.292379,-0.325858,-0.259478,0.367176,219.829,146.706)">
                    <path d="M196.287,68.261C218.981,58.964 328.983,22.748 332.365,28.492C339.498,40.607 318.899,103.51 286.962,108.717C251.096,114.565 249.452,114.213 230.839,98.525" style="fill:white;stroke:black;stroke-width:7.09px;"/>
                </g>
                <g transform="matrix(0.292379,0.325858,-0.259478,0.367176,127.396,43.6893)">
                    <path d="M223.378,72.713C310.932,36.844 326.771,8.349 327.985,38.774C328.545,52.822 318.899,103.51 286.962,108.717C251.096,114.565 249.452,114.213 230.839,98.525" style="fill:white;stroke:black;stroke-width:7.09px;"/>
                </g>
            </g>
            <path d="M125.205,59.481C125.205,59.481 134.719,66.905 141.614,77.688C149.05,89.317 152.713,105.634 152.713,105.634C152.952,106.701 152.772,107.846 152.229,108.719C151.686,109.592 150.845,110.088 149.963,110.055L126.124,109.176C125.024,109.136 124.047,108.282 123.635,107.002C120.156,96.2 117.085,76.804 121.107,61.357C121.371,60.341 121.993,59.534 122.793,59.167C123.592,58.801 124.482,58.917 125.205,59.481ZM123.742,62.439C119.93,77.08 122.908,95.459 126.205,105.696L150.044,106.575C150.044,106.575 146.557,90.978 139.453,79.867C132.852,69.544 123.742,62.439 123.742,62.439Z"/>
        </g>
    </g>
    <g transform="matrix(-2.01313,-2.93505e-16,-2.46538e-16,2.39665,336.609,-255.115)">
        <path d="M39.583,181.666C40.123,184.455 34.458,186.541 34.184,191.438C34.166,191.759 49.28,182.32 50.949,186.63C52.775,191.348 57.804,196.234 62.349,200.137C66.294,203.524 64.232,203.423 68.377,208.487C71.934,212.833 76.122,214.484 82.276,214.781C85.503,214.937 99.704,214.308 102.678,205.962C104.529,200.769 109.015,196.98 112.933,192.362C117.964,186.428 117.137,186.001 120.232,184.749C122.977,183.64 131.81,185.472 131.802,185.452C128.96,178.717 122.085,177.869 123.481,176.407C124.836,174.988 137.101,174.99 136.548,173.326C135.049,168.819 126.718,163.889 126.718,161.106C126.718,157.962 142.903,161.357 142.52,161.106C129.131,152.338 121.099,160.306 113.679,150.552C110.009,145.728 94.863,139.167 85.11,139.167C72.545,139.167 57.141,139.239 50.009,151.957C46.183,158.782 25.821,161.031 25.857,165.07C25.862,165.696 37.182,161.986 39.439,163.736C43.076,166.556 38.311,171.722 37.163,173.326C34.169,177.51 26.363,177.456 23.196,183.735C23.049,184.027 36.934,179.053 39.583,181.666Z" style="fill:white;"/>
        <clipPath id="_clip3">
            <path d="M39.583,181.666C40.123,184.455 34.458,186.541 34.184,191.438C34.166,191.759 49.28,182.32 50.949,186.63C52.775,191.348 57.804,196.234 62.349,200.137C66.294,203.524 64.232,203.423 68.377,208.487C71.934,212.833 76.122,214.484 82.276,214.781C85.503,214.937 99.704,214.308 102.678,205.962C104.529,200.769 109.015,196.98 112.933,192.362C117.964,186.428 117.137,186.001 120.232,184.749C122.977,183.64 131.81,185.472 131.802,185.452C128.96,178.717 122.085,177.869 123.481,176.407C124.836,174.988 137.101,174.99 136.548,173.326C135.049,168.819 126.718,163.889 126.718,161.106C126.718,157.962 142.903,161.357 142.52,161.106C129.131,152.338 121.099,160.306 113.679,150.552C110.009,145.728 94.863,139.167 85.11,139.167C72.545,139.167 57.141,139.239 50.009,151.957C46.183,158.782 25.821,161.031 25.857,165.07C25.862,165.696 37.182,161.986 39.439,163.736C43.076,166.556 38.311,171.722 37.163,173.326C34.169,177.51 26.363,177.456 23.196,183.735C23.049,184.027 36.934,179.053 39.583,181.666Z"/>
        </clipPath>
        <g clip-path="url(#_clip3)">
            <g transform="matrix(0.875864,0,0,-0.875864,-73.0889,307.201)">
                <path d="M155.914,222.07C141.303,214.144 143.56,212.075 127.488,216.451C112.711,220.474 89.15,176.385 102.506,152.002C113.264,132.362 129.954,77.8 177.713,82.828C198.299,84.995 256.933,120.561 259.251,144.181C261.561,167.71 279.988,149.668 286.799,183.628C296.27,230.855 200.15,220 193.792,223.057C190.014,224.873 181.726,208.273 177.939,209.396C168.758,212.12 164.506,226.266 155.914,222.07Z" style="fill:rgb(226,243,241);"/>
                <path d="M155.914,222.07C141.303,214.144 143.56,212.075 127.488,216.451C112.711,220.474 89.15,176.385 102.506,152.002C113.264,132.362 129.954,77.8 177.713,82.828C198.299,84.995 256.933,120.561 259.251,144.181C261.561,167.71 279.988,149.668 286.799,183.628C296.27,230.855 200.15,220 193.792,223.057C190.014,224.873 181.726,208.273 177.939,209.396C168.758,212.12 164.506,226.266 155.914,222.07ZM193.898,219.095C194.971,218.904 196.332,218.751 197.957,218.679C206.795,218.286 226.738,218.979 245.428,216.155C266.552,212.964 286.556,205.36 282.325,184.261C280.484,175.081 277.871,170.065 274.821,167.043C271.848,164.097 268.544,163.128 265.708,161.747C260.457,159.189 255.856,155.969 254.729,144.494C253.869,135.73 244.315,125.377 232.341,115.759C213.783,100.853 188.987,87.855 177.149,86.609C155.218,84.3 140.633,95.977 130.084,110.182C118.711,125.494 111.953,143.873 106.628,153.595C97.899,169.532 106.328,194.449 116.743,206.698C118.747,209.055 120.8,210.924 122.86,212.041C124.002,212.66 125.059,213.106 126.089,212.826C133.468,210.817 137.519,210.155 140.752,210.47C143.083,210.697 145.101,211.366 147.428,212.569C149.959,213.877 153.032,215.964 158.262,218.807L158.266,218.809C158.948,219.112 159.525,218.937 160.072,218.606C161.155,217.95 162.159,216.971 163.202,215.906C166.998,212.032 171.122,207.377 176.427,205.803L178.168,205.532L179.734,205.673L181.198,206.132L182.784,207.011C184.747,208.356 187.237,211.355 189.638,214.365C190.938,215.994 192.954,218.118 193.898,219.095Z" style="fill:rgb(226,243,241);"/>
            </g>
            <g transform="matrix(-0.496738,-6.08328e-17,-3.9743e-17,0.324526,154.107,168.176)">
                <path d="M152.371,-31.958C156.457,-34.856 161.722,-29.411 167.942,-26.954C180.41,-22.028 183.405,-27.986 197.429,-16.766C203.203,-12.146 207.624,-0.764 205.97,-1.806C186.787,-13.89 171.308,-12.958 164.112,-11.27C146.698,-7.183 178.763,61.139 178.763,88.89C178.763,108.387 162.934,124.217 143.437,124.217C123.94,124.217 108.111,108.387 108.111,88.89C108.111,61.117 150.661,18.973 126.962,-12.339C118.049,-24.117 83.429,2.95 83.193,2.42C82.054,-0.136 83.757,-14.135 94.557,-18.238C104.225,-21.912 111.975,-24.592 121.773,-27.86C126.731,-29.514 131.187,-34.499 134.588,-31.626C138.197,-28.577 140.464,-9.515 143.427,-9.57C146.391,-9.625 148.285,-29.061 152.371,-31.958Z" style="fill:white;"/>
            </g>
        </g>
        <path d="M36.791,166.651C36.783,166.68 36.776,166.708 36.77,166.735C36.7,167.073 36.566,167.412 36.407,167.745C35.62,169.393 34.27,170.89 33.757,171.606C32.605,173.216 30.381,173.844 28.286,174.84C24.872,176.464 21.524,178.494 19.537,182.433L19.267,183.233L19.232,183.991L19.396,184.721L19.771,185.435L20.756,186.378L22.051,186.941L23.6,187.071L24.735,186.863C25.864,186.566 29.634,185.341 33.203,184.661C31.692,186.434 30.368,188.545 30.215,191.281L30.314,192.197L30.629,192.932L31.367,193.797L32.303,194.383L33.481,194.73L34.561,194.77L35.704,194.539L36.675,194.114C37.856,193.508 41.426,191.449 44.889,190.016C45.76,189.655 46.962,189.311 47.803,189.089C50.151,193.796 55.003,198.603 59.509,202.471C61.273,203.986 61.418,204.568 61.925,205.604C62.446,206.669 63.198,208.052 65.102,210.378C69.447,215.687 74.531,217.75 82.047,218.114C84.27,218.221 91.028,218.004 96.817,215.744C101.171,214.043 104.944,211.244 106.485,206.919C108.211,202.076 112.516,198.606 116.169,194.298C118.246,191.849 119.357,190.31 120.145,189.261C120.739,188.471 120.943,188.181 121.852,187.8C122.043,187.791 123.539,187.723 124.516,187.796C127.104,187.989 129.882,188.514 130.685,188.665L131.308,188.765L132.329,188.761L133.747,188.363L134.672,187.761L135.317,187.009L135.773,185.583L135.547,184.338C134.404,181.628 132.74,179.705 131.099,178.284C133.384,178.001 135.6,177.685 136.904,177.281L138.639,176.516L139.49,175.841L140.051,175.13L140.516,173.817L140.375,172.428C139.488,169.761 136.726,166.887 134.04,164.351C133.678,164.009 133.285,163.614 132.899,163.214C133.128,163.227 133.349,163.242 133.556,163.262C136.903,163.575 140.404,164.214 141.496,164.372L143.009,164.431L144.266,164.117L145.152,163.621L145.834,162.965L146.294,162.177L146.496,161.279L146.44,160.531L146.119,159.685L145.683,159.084L144.963,158.474C137.409,153.526 131.393,153.237 126.192,152.872C122.749,152.631 119.798,152.397 117.027,148.755C115.316,146.505 111.554,143.842 106.821,141.564C100.13,138.344 91.538,135.829 85.11,135.829C71.163,135.829 54.33,136.417 46.414,150.535C45.649,151.9 43.824,152.883 41.785,153.836C37.58,155.801 32.295,157.271 28.631,158.73C26.522,159.571 24.854,160.464 23.826,161.343L22.995,162.181L22.296,163.267L21.989,164.141L21.883,165.095L22.013,165.925L22.418,166.757L23.025,167.432L23.676,167.888L25.07,168.39L26.504,168.464C27.667,168.384 31.661,167.313 35.12,166.799C35.625,166.724 36.279,166.678 36.791,166.651ZM39.583,181.666C36.934,179.053 23.049,184.027 23.196,183.735C26.363,177.456 34.169,177.51 37.163,173.326C38.311,171.722 43.076,166.556 39.439,163.736C37.182,161.986 25.862,165.696 25.857,165.07C25.821,161.031 46.183,158.782 50.009,151.957C57.141,139.239 72.545,139.167 85.11,139.167C94.863,139.167 110.009,145.728 113.679,150.552C121.099,160.306 129.131,152.338 142.52,161.106C142.903,161.357 126.718,157.962 126.718,161.106C126.718,163.889 135.049,168.819 136.548,173.326C137.101,174.99 124.836,174.988 123.481,176.407C122.085,177.869 128.96,178.717 131.802,185.452C131.81,185.472 122.977,183.64 120.232,184.749C117.137,186.001 117.964,186.428 112.933,192.362C109.015,196.98 104.529,200.769 102.678,205.962C99.704,214.308 85.503,214.937 82.276,214.781C76.122,214.484 71.934,212.833 68.377,208.487C64.232,203.423 66.294,203.524 62.349,200.137C57.804,196.234 52.775,191.348 50.949,186.63C49.28,182.32 34.166,191.759 34.184,191.438C34.458,186.541 40.123,184.455 39.583,181.666Z"/>
    </g>
    <g transform="matrix(-1.66455,0.581597,0.581597,1.66455,385.323,-150.533)">
        <g>
            <g transform="matrix(0.785703,-4.36153e-17,4.36153e-17,0.785703,37.5432,30.2916)">
                <g>
                    <g transform="matrix(0.551487,-0.144644,-0.378745,-1.44405,118.266,384.59)">
                        <path d="M179.042,168.169L157.795,168.169C156.76,167.154 156.216,166.008 156.216,164.842C156.216,161.109 161.684,158.078 168.418,158.078C175.153,158.078 180.62,161.109 180.62,164.842C180.62,166.008 180.077,167.154 179.042,168.169Z"/>
                    </g>
                    <g transform="matrix(0.637241,-0.0180822,0.0283643,0.999598,37.442,-11.1306)">
                        <path d="M149.686,139.106C153.307,130.639 172.626,127.679 172.518,132.711C172.508,133.157 172.074,132.385 172.518,132.711" style="fill:none;stroke:black;stroke-width:6.89px;"/>
                    </g>
                </g>
                <g transform="matrix(-0.782402,0.622774,0.622774,0.782402,232.117,-81.102)">
                    <g transform="matrix(0.551487,-0.144644,-0.378745,-1.44405,118.266,384.59)">
                        <path d="M179.042,168.169L157.795,168.169C156.76,167.154 156.216,166.008 156.216,164.842C156.216,161.109 161.684,158.078 168.418,158.078C175.153,158.078 180.62,161.109 180.62,164.842C180.62,166.008 180.077,167.154 179.042,168.169Z"/>
                    </g>
                    <g transform="matrix(0.637241,-0.0180822,0.0283643,0.999598,37.442,-11.1306)">
                        <path d="M149.686,139.106C153.307,130.639 172.626,127.679 172.518,132.711C172.508,133.157 172.074,132.385 172.518,132.711" style="fill:none;stroke:black;stroke-width:6.89px;"/>
                    </g>
                </g>
            </g>
        </g>
    </g>
    <g transform="matrix(-2.2265,-1.49839e-16,-1.49839e-16,-3.45003,570.634,755.485)">
        <path d="M188.409,156.22L175.717,156.22C175.074,155.479 174.735,154.638 174.735,153.782C174.735,151.091 178.019,148.906 182.063,148.906C186.107,148.906 189.391,151.091 189.391,153.782C189.391,154.638 189.052,155.479 188.409,156.22Z"/>
    </g>
    <g transform="matrix(-1,0,0,1.01712,245.565,-8.23459)">
        <path d="M80.294,238.882C81.078,257.779 94.649,255.262 102.128,245.781" style="fill:none;stroke:black;stroke-width:7.93px;"/>
    </g>
    <g transform="matrix(1,0,0,1.01712,84.9774,-8.23459)">
        <path d="M80.294,238.882C81.078,257.779 96.449,257.371 104.969,245.781" style="fill:none;stroke:black;stroke-width:7.93px;"/>
    </g>
</svg>
