<?xml version="1.0" encoding="UTF-8" standalone="no"?>
<!DOCTYPE svg PUBLIC "-//W3C//DTD SVG 1.1//EN" "http://www.w3.org/Graphics/SVG/1.1/DTD/svg11.dtd">
<svg width="100%" height="100%" viewBox="0 0 350 400" version="1.1" xmlns="http://www.w3.org/2000/svg" xmlns:xlink="http://www.w3.org/1999/xlink" xml:space="preserve" xmlns:serif="http://www.serif.com/" style="fill-rule:evenodd;clip-rule:evenodd;stroke-linecap:round;stroke-linejoin:round;stroke-miterlimit:1.5;">
    <g transform="matrix(1,0,0,1,-7.48079,70.992)">
        <g transform="matrix(0.60487,0.952174,-0.952174,0.60487,191.694,-127.104)">
            <path d="M127.078,167.54C148.383,167.54 169.257,188.693 170,199.868C171.8,226.942 152.703,232.435 131.398,232.435C110.093,232.435 93.356,213.88 92.796,202.541C92.244,191.355 105.773,167.54 127.078,167.54Z" style="fill:white;"/>
            <clipPath id="_clip1">
                <path d="M127.078,167.54C148.383,167.54 169.257,188.693 170,199.868C171.8,226.942 152.703,232.435 131.398,232.435C110.093,232.435 93.356,213.88 92.796,202.541C92.244,191.355 105.773,167.54 127.078,167.54Z"/>
            </clipPath>
            <g clip-path="url(#_clip1)">
                <g transform="matrix(0.536207,-0.844086,0.613609,0.389796,22.0403,169.023)">
                    <path d="M58.407,215.76C80.514,217.579 85.54,230.74 91.78,236.459C97.834,242.007 92.766,254.84 92.766,263.202C92.766,280.182 77.371,293.968 58.409,293.968C39.447,293.968 24.052,280.182 24.052,263.202C24.052,246.221 20.505,212.642 58.407,215.76Z" style="fill:white;"/>
                </g>
            </g>
            <path d="M127.078,167.54C148.383,167.54 169.257,188.693 170,199.868C171.8,226.942 152.703,232.435 131.398,232.435C110.093,232.435 93.356,213.88 92.796,202.541C92.244,191.355 105.773,167.54 127.078,167.54ZM127.078,174.632C118.692,174.632 111.949,179.531 107.244,185.319C102.556,191.086 99.663,197.803 99.88,202.191C100.042,205.484 102.39,209.457 105.771,213.228C111.574,219.701 120.781,225.343 131.398,225.343C142.067,225.343 152.245,224.309 158.218,218.108C161.856,214.33 163.473,208.598 162.924,200.338C162.704,197.026 159.665,192.79 155.606,188.588C148.608,181.344 137.964,174.632 127.078,174.632Z"/>
        </g>
        <g transform="matrix(0.971908,0,0,0.765365,73.4244,79.958)">
            <path d="M129.478,157.114C150.783,157.114 161.848,185.175 162.591,196.351C164.391,223.425 138.544,233.183 131.398,232.435C110.209,230.216 98.908,223.735 96.988,197.751C96.162,186.582 108.173,157.114 129.478,157.114Z" style="fill:rgb(226,243,241);"/>
            <path d="M129.478,157.114C150.783,157.114 161.848,185.175 162.591,196.351C164.391,223.425 138.544,233.183 131.398,232.435C110.209,230.216 98.908,223.735 96.988,197.751C96.162,186.582 108.173,157.114 129.478,157.114ZM129.478,167.566C119.855,167.566 112.936,175.928 108.926,184.133C106.544,189.007 104.961,193.778 105.183,196.775C105.738,204.282 107.073,209.676 109.82,213.38C114.378,219.528 121.914,220.954 132.075,222.018C134.71,222.294 140.688,220.221 145.948,215.994C150.697,212.177 154.989,206.247 154.389,197.23C154.106,192.974 151.629,185.642 147.423,179.234C143.321,172.985 137.391,167.566 129.478,167.566Z"/>
        </g>
        <g transform="matrix(0.791773,0,0,0.765365,28.1089,74.9204)">
            <path d="M129.478,157.114C150.783,157.114 161.848,185.175 162.591,196.351C164.391,223.425 138.544,233.183 131.398,232.435C110.209,230.216 98.908,223.735 96.988,197.751C96.162,186.582 108.173,157.114 129.478,157.114Z" style="fill:rgb(226,243,241);"/>
            <path d="M129.478,157.114C150.783,157.114 161.848,185.175 162.591,196.351C164.391,223.425 138.544,233.183 131.398,232.435C110.209,230.216 98.908,223.735 96.988,197.751C96.162,186.582 108.173,157.114 129.478,157.114ZM129.478,167.566C122.328,167.566 117.113,173.1 113.38,178.981C109.264,185.465 106.757,192.823 107.062,196.955C107.754,206.315 109.484,212.414 113.601,216.121C117.964,220.05 124.327,221.188 132.416,222.035C134.12,222.214 137.441,220.88 140.944,218.794C147.037,215.167 153.258,208.297 152.511,197.068C152.219,192.674 149.729,185.029 145.387,178.414C141.693,172.786 136.604,167.566 129.478,167.566Z"/>
        </g>
        <g transform="matrix(-1.96987,-2.41239e-16,1.47115e-16,-1.20129,601.63,336.189)">
            <path d="M196.227,83.21C174.518,84.966 159.368,100.545 156.428,160.216C155.147,186.22 167.471,238.83 202.177,234.331C234.625,230.125 279.193,221.122 276.675,144.76C275.359,104.846 228.906,80.567 196.227,83.21Z" style="fill:rgb(226,243,241);"/>
            <path d="M196.227,83.21C228.906,80.567 275.359,104.846 276.675,144.76C279.193,221.122 234.625,230.125 202.177,234.331C167.471,238.83 155.147,186.22 156.428,160.216C159.368,100.545 174.518,84.966 196.227,83.21ZM196.427,89.861C186.69,90.649 178.361,94.258 172.199,104.639C165.814,115.397 161.843,133.017 160.476,160.752C159.318,184.257 170.488,231.759 201.857,227.693C214.525,226.05 229.091,223.715 241.846,216.666C252.638,210.703 262.14,201.385 267.648,185.651C271.314,175.175 273.174,161.913 272.62,145.12C272.159,131.154 265.019,119.864 255.222,110.907C239.024,96.097 215.332,88.332 196.427,89.861Z"/>
        </g>
        <g transform="matrix(2.69734,-2.65544e-16,2.65544e-16,-4.86568,-300.167,900.581)">
            <path d="M168.418,156.434C160.047,156.434 153.25,160.201 153.25,164.842C153.25,169.483 160.047,173.251 168.418,173.251C176.79,173.251 183.586,169.483 183.586,164.842C183.586,160.201 176.79,156.434 168.418,156.434ZM168.418,158.078C175.153,158.078 180.62,161.109 180.62,164.842C180.62,168.576 175.153,171.606 168.418,171.606C161.684,171.606 156.216,168.576 156.216,164.842C156.216,161.109 161.684,158.078 168.418,158.078Z"/>
        </g>
        <g transform="matrix(1.76323,0,0,1.76323,-137.81,-148.326)">
            <g transform="matrix(-1.59514,-0.36598,-0.291427,1.27019,445.236,48.094)">
                <path d="M120.532,75.024C123.633,71.192 127.847,79.292 131.195,83.215C139.312,92.723 147.257,107.502 147.257,107.502L118.936,107.502C118.936,107.502 114.821,104.203 116.909,101.361C119.32,98.082 117.824,78.371 120.532,75.024Z" style="fill:rgb(226,243,241);"/>
                <path d="M118.588,72.542C117.916,73.372 117.299,74.745 116.895,76.609C116.286,79.417 116.04,83.717 115.841,88.016C115.688,91.327 115.557,94.636 115.22,97.093C115.101,97.955 114.786,99.136 114.786,99.136C114.786,99.136 114.843,99.039 114.872,99L114.047,100.481L113.603,102.196L113.625,104.196C113.741,104.995 113.986,105.782 114.332,106.518C115.37,108.73 117.444,110.436 117.444,110.436C117.89,110.794 118.407,110.983 118.936,110.983L147.257,110.983C148.283,110.983 149.224,110.273 149.705,109.136C150.187,107.999 150.129,106.621 149.555,105.554C149.555,105.554 141.405,90.413 133.086,80.669C130.984,78.207 128.526,74.211 126.219,72.243C123.501,69.923 120.881,69.708 118.588,72.542ZM120.532,75.024C123.633,71.192 127.847,79.292 131.195,83.215C139.312,92.723 147.257,107.502 147.257,107.502L118.936,107.502C118.936,107.502 114.821,104.203 116.909,101.361C119.32,98.082 117.824,78.371 120.532,75.024Z"/>
            </g>
            <g transform="matrix(1.59514,-0.36598,0.291427,1.27019,-73.5963,48.094)">
                <path d="M120.532,75.024C123.633,71.192 127.847,79.292 131.195,83.215C139.312,92.723 147.257,107.502 147.257,107.502L118.936,107.502C118.936,107.502 114.821,104.203 116.909,101.361C119.32,98.082 117.824,78.371 120.532,75.024Z" style="fill:rgb(226,243,241);"/>
                <path d="M118.588,72.542C120.881,69.708 123.501,69.923 126.219,72.243C128.526,74.211 130.984,78.207 133.086,80.669C141.405,90.413 149.555,105.554 149.555,105.554C150.129,106.621 150.187,107.999 149.705,109.136C149.224,110.273 148.283,110.983 147.257,110.983L118.936,110.983C118.407,110.983 117.89,110.794 117.444,110.436C117.444,110.436 115.37,108.73 114.332,106.518C113.986,105.782 113.741,104.995 113.625,104.196L113.603,102.196L114.047,100.481L114.872,99C114.843,99.039 114.786,99.136 114.786,99.136C114.786,99.136 115.101,97.955 115.22,97.093C115.557,94.636 115.688,91.327 115.841,88.016C116.04,83.717 116.286,79.417 116.895,76.609C117.299,74.745 117.916,73.372 118.588,72.542ZM120.532,75.024C117.824,78.371 119.32,98.082 116.909,101.361C114.821,104.203 118.936,107.502 118.936,107.502L147.257,107.502C147.257,107.502 139.312,92.723 131.195,83.215C127.847,79.292 123.633,71.192 120.532,75.024Z"/>
            </g>
        </g>
        <g transform="matrix(0.971908,0,0,0.971908,88.9215,-1.9347)">
            <path d="M129.478,157.114C150.783,157.114 161.848,185.175 162.591,196.351C164.391,223.425 138.544,233.183 131.398,232.435C110.209,230.216 98.908,223.735 96.988,197.751C96.162,186.582 108.173,157.114 129.478,157.114Z" style="fill:rgb(196,196,196);"/>
            <path d="M129.478,157.114C150.783,157.114 161.848,185.175 162.591,196.351C164.391,223.425 138.544,233.183 131.398,232.435C110.209,230.216 98.908,223.735 96.988,197.751C96.162,186.582 108.173,157.114 129.478,157.114ZM129.478,165.345C121.69,165.345 115.951,171.248 111.883,177.655C107.435,184.664 104.866,192.678 105.197,197.145C105.948,207.314 108.003,213.861 112.475,217.888C117.069,222.025 123.738,223.356 132.256,224.248C133.548,224.384 135.78,223.654 138.347,222.538C145.913,219.251 155.338,211.326 154.378,196.897C154.007,191.308 150.43,180.699 143.879,173.069C140.188,168.771 135.479,165.345 129.478,165.345Z"/>
        </g>
        <g transform="matrix(0.971908,0,0,0.971908,88.9215,-1.9347)">
            <path d="M129.478,157.114C150.783,157.114 161.848,185.175 162.591,196.351C164.391,223.425 138.544,233.183 131.398,232.435C110.209,230.216 98.908,223.735 96.988,197.751C96.162,186.582 108.173,157.114 129.478,157.114Z" style="fill:rgb(226,243,241);"/>
            <path d="M129.478,157.114C150.783,157.114 161.848,185.175 162.591,196.351C164.391,223.425 138.544,233.183 131.398,232.435C110.209,230.216 98.908,223.735 96.988,197.751C96.162,186.582 108.173,157.114 129.478,157.114ZM129.478,165.345C121.69,165.345 115.951,171.248 111.883,177.655C107.435,184.664 104.866,192.678 105.197,197.145C105.948,207.314 108.003,213.861 112.475,217.888C117.069,222.025 123.738,223.356 132.256,224.248C133.548,224.384 135.78,223.654 138.347,222.538C145.913,219.251 155.338,211.326 154.378,196.897C154.007,191.308 150.43,180.699 143.879,173.069C140.188,168.771 135.479,165.345 129.478,165.345Z"/>
        </g>
        <g transform="matrix(2.01313,0,0,-2.01313,20.7269,470.111)">
            <path d="M39.583,181.666C43.766,203.283 59.79,214.554 85.11,214.554C110.429,214.554 126.822,199.126 130.637,181.666C134.945,177.416 137.21,172.631 137.21,167.763C137.21,151.98 113.865,139.167 85.11,139.167C56.355,139.167 33.01,151.98 33.01,167.763C33.01,172.631 35.275,177.416 39.583,181.666Z" style="fill:rgb(253,232,230);"/>
            <clipPath id="_clip2">
                <path d="M39.583,181.666C43.766,203.283 59.79,214.554 85.11,214.554C110.429,214.554 126.822,199.126 130.637,181.666C134.945,177.416 137.21,172.631 137.21,167.763C137.21,151.98 113.865,139.167 85.11,139.167C56.355,139.167 33.01,151.98 33.01,167.763C33.01,172.631 35.275,177.416 39.583,181.666Z"/>
            </clipPath>
            <g clip-path="url(#_clip2)">
                <g transform="matrix(0.875864,0,0,-0.875864,-85.1225,308.802)">
                    <path d="M138.853,209.416C124.242,201.49 153.02,175.757 136.948,180.133C122.171,184.156 89.15,176.385 102.506,152.002C113.264,132.362 129.954,77.8 177.713,82.828C198.299,84.995 256.933,120.561 259.251,144.181C261.561,167.71 219.459,237.95 196.255,212.235C196.129,212.096 173.244,214.757 166.886,217.814C163.107,219.631 169.475,212.057 165.688,213.181C156.507,215.905 147.445,213.612 138.853,209.416Z" style="fill:rgb(226,243,241);"/>
                </g>
                <g transform="matrix(4.87682e-17,-0.652838,-0.747851,-1.43131e-16,176.09,312.9)">
                    <ellipse cx="186.006" cy="122.759" rx="28.122" ry="24.782" style="fill:rgb(131,131,131);"/>
                </g>
                <g transform="matrix(4.87682e-17,-0.652838,-0.747851,-1.43131e-16,176.09,312.9)">
                    <ellipse cx="186.006" cy="122.759" rx="28.122" ry="24.782" style="fill:rgb(150,169,196);"/>
                </g>
            </g>
            <path d="M35.923,183.605C40.827,206.401 57.981,218.528 85.11,218.528C112.123,218.528 129.656,202.194 134.254,183.651C138.87,178.763 141.183,173.281 141.183,167.763C141.183,160.309 136.998,153.285 129.533,147.698C119.505,140.191 103.354,135.193 85.11,135.193C66.866,135.193 50.715,140.191 40.687,147.698C33.222,153.285 29.036,160.309 29.036,167.763C29.036,173.264 31.335,178.729 35.923,183.605ZM39.583,181.666C35.275,177.416 33.01,172.631 33.01,167.763C33.01,151.98 56.355,139.167 85.11,139.167C113.865,139.167 137.21,151.98 137.21,167.763C137.21,172.631 134.945,177.416 130.637,181.666C126.822,199.126 110.429,214.554 85.11,214.554C59.79,214.554 43.766,203.283 39.583,181.666Z"/>
        </g>
        <g transform="matrix(1.12805,0,0,1.12805,-11.1157,-40.0205)">
            <g transform="matrix(1.56308,0,0,1.56308,-98.7253,-91.1906)">
                <g transform="matrix(0.785703,0,0,0.785703,34.8592,31.2294)">
                    <g>
                        <g transform="matrix(0.866025,0.5,-0.5,0.866025,82.7757,-72.3274)">
                            <path d="M146.737,134.766C156.976,131.652 169.599,130.266 174.077,133.552" style="fill:white;stroke:black;stroke-width:5.77px;"/>
                        </g>
                        <g transform="matrix(1,-9.84465e-17,9.84465e-17,-1.80388,-9.32041,430.883)">
                            <ellipse cx="168.418" cy="164.842" rx="12.202" ry="6.764"/>
                        </g>
                    </g>
                    <g transform="matrix(1,-9.84465e-17,9.84465e-17,-1.80388,-9.32041,430.883)">
                        <ellipse cx="168.418" cy="164.842" rx="12.202" ry="6.764"/>
                    </g>
                </g>
            </g>
            <g transform="matrix(-1.56308,0,0,1.56308,458.957,-91.1906)">
                <g transform="matrix(0.785703,0,0,0.785703,34.8592,31.2294)">
                    <g>
                        <g transform="matrix(1,-2.77556e-17,-2.77556e-17,1,-9.28141,-7.6013)">
                            <path d="M146.737,134.766C156.976,131.652 169.599,130.266 174.077,133.552" style="fill:white;stroke:black;stroke-width:5.77px;"/>
                        </g>
                        <g transform="matrix(1,-9.84465e-17,9.84465e-17,-1.80388,-9.32041,430.883)">
                            <ellipse cx="168.418" cy="164.842" rx="12.202" ry="6.764"/>
                        </g>
                    </g>
                    <g>
                        <g transform="matrix(-5.69771e-17,0.721825,1.08673,1.74167e-16,47.7816,17.6566)">
                            <ellipse cx="186.006" cy="122.759" rx="28.122" ry="24.782" style="fill:rgb(191,203,217);"/>
                        </g>
                        <g transform="matrix(-5.69771e-17,0.721825,1.08673,1.74167e-16,47.7816,17.6566)">
                            <ellipse cx="186.006" cy="122.759" rx="28.122" ry="24.782" style="fill:rgb(191,203,217);"/>
                        </g>
                    </g>
                </g>
            </g>
        </g>
        <g transform="matrix(2.2265,2.72667e-16,-2.72667e-16,2.2265,-211.137,-225.614)">
            <path d="M188.409,156.22L175.717,156.22C175.074,155.479 174.735,154.638 174.735,153.782C174.735,151.091 178.019,148.906 182.063,148.906C186.107,148.906 189.391,151.091 189.391,153.782C189.391,154.638 189.052,155.479 188.409,156.22Z"/>
        </g>
        <g transform="matrix(1.12805,0,0,1.12805,-14.0739,-26.4673)">
            <path d="M127.078,167.54C148.383,167.54 169.257,188.693 170,199.868C171.8,226.942 152.703,232.435 131.398,232.435C110.093,232.435 94.717,228.524 92.796,202.541C91.971,191.371 105.773,167.54 127.078,167.54Z" style="fill:rgb(196,196,196);"/>
            <clipPath id="_clip3">
                <path d="M127.078,167.54C148.383,167.54 169.257,188.693 170,199.868C171.8,226.942 152.703,232.435 131.398,232.435C110.093,232.435 94.717,228.524 92.796,202.541C91.971,191.371 105.773,167.54 127.078,167.54Z"/>
            </clipPath>
            <g clip-path="url(#_clip3)">
                <g transform="matrix(1,0,0,0.72695,51.5576,20.0225)">
                    <path d="M58.409,232.435C68.034,232.435 85.54,230.74 91.78,236.459C97.834,242.007 92.766,254.84 92.766,263.202C92.766,280.182 77.371,293.968 58.409,293.968C39.447,293.968 24.052,280.182 24.052,263.202C24.052,246.221 39.447,232.435 58.409,232.435Z" style="fill:white;"/>
                </g>
            </g>
            <path d="M127.078,167.54C148.383,167.54 169.257,188.693 170,199.868C171.8,226.942 152.703,232.435 131.398,232.435C110.093,232.435 94.717,228.524 92.796,202.541C91.971,191.371 105.773,167.54 127.078,167.54ZM127.078,174.632C116.882,174.632 109.032,181.776 104.372,189.175C101.432,193.843 99.62,198.646 99.869,202.018C100.472,210.179 102.431,215.691 106.037,219.219C111.762,224.819 120.776,225.343 131.398,225.343C142.067,225.343 152.245,224.309 158.218,218.108C161.856,214.33 163.473,208.598 162.924,200.338C162.704,197.026 159.665,192.79 155.606,188.588C148.608,181.344 137.964,174.632 127.078,174.632Z"/>
        </g>
        <g transform="matrix(1.12805,0,0,1.12805,-14.0739,-26.4673)">
            <path d="M127.078,167.54C148.383,167.54 169.257,188.693 170,199.868C171.8,226.942 152.703,232.435 131.398,232.435C110.093,232.435 94.717,228.524 92.796,202.541C91.971,191.371 105.773,167.54 127.078,167.54Z" style="fill:rgb(226,243,241);"/>
            <clipPath id="_clip4">
                <path d="M127.078,167.54C148.383,167.54 169.257,188.693 170,199.868C171.8,226.942 152.703,232.435 131.398,232.435C110.093,232.435 94.717,228.524 92.796,202.541C91.971,191.371 105.773,167.54 127.078,167.54Z"/>
            </clipPath>
            <g clip-path="url(#_clip4)">
                <g transform="matrix(1,0,0,0.72695,51.5576,20.0225)">
                    <path d="M70.251,219.175C103.422,209.818 116.199,237.772 118.56,247.561C127.876,286.193 77.371,293.968 58.409,293.968C39.447,293.968 24.052,280.182 24.052,263.202C24.052,246.221 33.055,229.667 70.251,219.175Z" style="fill:white;"/>
                </g>
            </g>
            <path d="M127.078,167.54C148.383,167.54 169.257,188.693 170,199.868C171.8,226.942 152.703,232.435 131.398,232.435C110.093,232.435 94.717,228.524 92.796,202.541C91.971,191.371 105.773,167.54 127.078,167.54ZM127.078,174.632C116.882,174.632 109.032,181.776 104.372,189.175C101.432,193.843 99.62,198.646 99.869,202.018C100.472,210.179 102.431,215.691 106.037,219.219C111.762,224.819 120.776,225.343 131.398,225.343C142.067,225.343 152.245,224.309 158.218,218.108C161.856,214.33 163.473,208.598 162.924,200.338C162.704,197.026 159.665,192.79 155.606,188.588C148.608,181.344 137.964,174.632 127.078,174.632Z"/>
        </g>
        <g transform="matrix(1,-2.60486e-17,2.37373e-17,-1.1051,-2.11981,379.863)">
            <path d="M253.354,233.149C250.452,233.016 243.339,227.289 239.956,227.047C229.231,226.279 207.043,225.728 199.576,225.619C189.035,225.465 162.854,224.47 152.588,226.443C144.235,228.049 130.313,235.757 128.186,233.149C121.257,224.649 177.818,173.221 188.261,173.017C223.652,172.328 271.858,233.997 253.354,233.149Z" style="fill:none;"/>
            <clipPath id="_clip5">
                <path d="M253.354,233.149C250.452,233.016 243.339,227.289 239.956,227.047C229.231,226.279 207.043,225.728 199.576,225.619C189.035,225.465 162.854,224.47 152.588,226.443C144.235,228.049 130.313,235.757 128.186,233.149C121.257,224.649 177.818,173.221 188.261,173.017C223.652,172.328 271.858,233.997 253.354,233.149Z"/>
            </clipPath>
            <g clip-path="url(#_clip5)">
                <g transform="matrix(0.718236,0.534518,0.705756,-0.776524,-75.4212,279.125)">
                    <path d="M178.092,149.882C207.349,149.882 236.103,180.41 236.103,200.931C236.103,221.452 192.658,246.866 149.315,230.054C123.075,219.876 132.737,186.701 123.674,177.614C116.522,170.444 113.186,159.26 121.307,152.726C131.028,144.905 162.152,149.882 178.092,149.882Z" style="fill:rgb(191,203,217);"/>
                    <clipPath id="_clip6">
                        <path d="M178.092,149.882C207.349,149.882 236.103,180.41 236.103,200.931C236.103,221.452 192.658,246.866 149.315,230.054C123.075,219.876 132.737,186.701 123.674,177.614C116.522,170.444 113.186,159.26 121.307,152.726C131.028,144.905 162.152,149.882 178.092,149.882Z"/>
                    </clipPath>
                    <g clip-path="url(#_clip6)">
                        <g transform="matrix(-0.897706,0.91358,-1.25039,-0.860704,446.082,117.264)">
                            <path d="M170.173,65.025C170.676,63.787 173.741,56.515 176.503,65.025C177.054,66.724 177.547,69.178 177.985,72.071C180.059,85.771 180.903,109.328 180.903,109.328C180.903,109.328 181.792,107.002 187.645,103.36C199.786,95.804 207.047,68.473 207.703,68.627C219.712,71.45 214.128,111.292 214.128,122.759C214.128,136.437 201.527,147.541 186.006,147.541C170.485,147.541 156.39,158.012 156.39,144.335C156.39,130.657 159.071,92.37 170.173,65.025Z" style="fill:rgb(150,169,196);"/>
                        </g>
                    </g>
                    <path d="M178.092,149.882C207.349,149.882 236.103,180.41 236.103,200.931C236.103,221.452 192.658,246.866 149.315,230.054C123.075,219.876 132.737,186.701 123.674,177.614C116.522,170.444 113.186,159.26 121.307,152.726C131.028,144.905 162.152,149.882 178.092,149.882ZM178.092,157.082C168.581,157.082 153.636,155.29 141.113,155.544C137.581,155.616 134.273,155.85 131.443,156.425C129.749,156.768 128.248,157.13 127.269,157.917C125.271,159.525 124.941,161.768 125.292,163.987C125.8,167.2 127.73,170.445 130.278,173C132.452,175.18 134.102,178.213 135.175,181.953C136.317,185.938 136.884,190.933 137.605,196.255C138.366,201.867 139.293,207.919 141.884,213.238C143.972,217.525 147.233,221.311 152.933,223.521C175.654,232.335 198.413,227.922 212.98,219.064C221.544,213.857 227.5,207.256 227.5,200.931C227.5,192.108 220.97,181.268 211.643,172.499C202.479,163.883 190.453,157.082 178.092,157.082Z"/>
                </g>
            </g>
            <path d="M253.354,233.149C271.858,233.997 223.652,172.328 188.261,173.017C177.818,173.221 121.257,224.649 128.186,233.149C130.313,235.757 144.235,228.049 152.588,226.443C162.854,224.47 189.035,225.465 199.576,225.619C207.043,225.728 229.231,226.279 239.956,227.047C243.339,227.289 250.452,233.016 253.354,233.149ZM141.381,222.261C141.762,221.753 142.15,221.257 142.54,220.785C152.591,208.619 169.718,193.055 181.505,184.767C184.392,182.736 188.251,180.697 189.109,180.251C195.979,180.315 203.311,183.353 210.454,187.614C222.905,195.042 234.574,206.416 242.032,216.247C243.151,217.722 244.199,219.356 245.135,220.962C243.422,220.297 241.848,219.921 240.587,219.83C229.728,219.053 207.265,218.491 199.705,218.38C188.761,218.221 161.583,217.314 150.926,219.362C148.133,219.899 144.774,221.012 141.381,222.261Z"/>
        </g>
    </g>
    <g transform="matrix(0.316582,0.411798,565.731,-434.922,-14503.9,11239.2)">
        <path d="M19.257,25.739L95.122,25.739" style="fill:none;stroke:black;stroke-width:0.02px;"/>
    </g>
    <g transform="matrix(2.64619e-16,2.14468,238.381,2.10537e-13,-5958.61,-114.539)">
        <path d="M64.211,25.739L95.122,25.739" style="fill:none;stroke:black;stroke-width:0.05px;"/>
    </g>
    <g transform="matrix(-0.356741,0.0955884,72.4548,270.405,-1525.13,-6803.66)">
        <path d="M19.257,25.739L95.122,25.739" style="fill:none;stroke:black;stroke-width:0.04px;"/>
    </g>
    <g transform="matrix(-0.675285,0.389876,139.972,242.439,-3254.34,-6140.39)">
        <path d="M19.257,25.739L95.122,25.739" style="fill:none;stroke:black;stroke-width:0.04px;"/>
    </g>
    <g transform="matrix(-1.595,-0.765922,-121.182,252.356,3565.75,-6170.67)">
        <path d="M69.674,25.739L95.122,25.739" style="fill:none;stroke:black;stroke-width:0.04px;"/>
    </g>
    <g transform="matrix(-1.47372,-1.97169,-359.761,268.9,9660.17,-6420.17)">
        <path d="M71.412,25.739L95.122,25.739" style="fill:none;stroke:black;stroke-width:0.03px;"/>
    </g>
    <g transform="matrix(0.441866,-2.66532,-443.102,-73.4589,11518,2465.82)">
        <path d="M75.326,25.739L95.122,25.739" style="fill:none;stroke:black;stroke-width:0.03px;"/>
    </g>
    <g transform="matrix(2.1217,-1.22496,-224.575,-388.975,5632.16,10399.9)">
        <path d="M75.411,25.739L95.122,25.739" style="fill:none;stroke:black;stroke-width:0.03px;"/>
    </g>
    <g transform="matrix(0.752197,0.496108,247.292,-374.943,-6371.65,9731.13)">
        <path d="M36.721,25.741L95.122,25.739" style="fill:none;stroke:black;stroke-width:0.03px;"/>
    </g>
</svg>
