<?xml version="1.0" encoding="UTF-8" standalone="no"?>
<!DOCTYPE svg PUBLIC "-//W3C//DTD SVG 1.1//EN" "http://www.w3.org/Graphics/SVG/1.1/DTD/svg11.dtd">
<svg width="100%" height="100%" viewBox="0 0 340 281" version="1.1" xmlns="http://www.w3.org/2000/svg" xmlns:xlink="http://www.w3.org/1999/xlink" xml:space="preserve" xmlns:serif="http://www.serif.com/" style="fill-rule:evenodd;clip-rule:evenodd;stroke-linecap:round;stroke-linejoin:round;stroke-miterlimit:1.5;">
    <g transform="matrix(-1.59604,-1.95459e-16,6.92641e-17,-0.565584,460.681,298.431)">
        <path d="M242.064,179.802L139.384,179.802C134.181,168.792 131.442,156.303 131.442,143.59C131.442,120.545 130.035,76.878 144.124,68.695C154.474,62.684 176.29,77.08 190.146,77.08C205.301,77.08 224.327,61.968 234.532,69.253C246.361,77.697 245.645,121.793 245.645,143.252C245.645,155.965 247.267,168.792 242.064,179.802Z" style="fill:white;"/>
        <path d="M242.064,179.802L139.384,179.802C134.181,168.792 131.442,156.303 131.442,143.59C131.442,120.545 130.035,76.878 144.124,68.695C154.474,62.684 176.29,77.08 190.146,77.08C205.301,77.08 224.327,61.968 234.532,69.253C246.361,77.697 245.645,121.793 245.645,143.252C245.645,155.965 247.267,168.792 242.064,179.802ZM240.073,165.657C240.926,162.397 240.908,158.851 240.848,155.346C240.781,151.341 240.633,147.29 240.633,143.252C240.633,133.399 240.853,118.338 239.66,104.782C238.801,95.027 237.211,85.756 233.303,82.966C229.681,80.381 224.807,81.281 219.401,82.924C210.092,85.755 199.408,91.224 190.146,91.224C181.688,91.224 170.313,86.018 160.293,83.121C154.326,81.396 148.897,80.364 145.134,82.55C140.377,85.312 138.292,94.227 137.341,104.235C136.052,117.787 136.454,133.053 136.454,143.59C136.454,151.466 138.21,158.741 141.126,165.658L240.073,165.657Z"/>
    </g>
    <g transform="matrix(2.69734,-2.65544e-16,2.65544e-16,-4.86568,-337.895,945.289)">
        <path d="M168.418,156.434C160.047,156.434 153.25,160.201 153.25,164.842C153.25,169.483 160.047,173.251 168.418,173.251C176.79,173.251 183.586,169.483 183.586,164.842C183.586,160.201 176.79,156.434 168.418,156.434ZM168.418,158.078C175.153,158.078 180.62,161.109 180.62,164.842C180.62,168.576 175.153,171.606 168.418,171.606C161.684,171.606 156.216,168.576 156.216,164.842C156.216,161.109 161.684,158.078 168.418,158.078Z"/>
    </g>
    <g transform="matrix(-0.971908,0,0,0.971908,219.948,42.7734)">
        <path d="M129.478,157.114C150.783,157.114 169.257,188.693 170,199.868C171.8,226.942 152.703,232.435 131.398,232.435C110.093,232.435 94.717,228.524 92.796,202.541C91.971,191.371 108.173,157.114 129.478,157.114Z" style="fill:rgb(226,243,241);"/>
        <path d="M129.478,157.114C108.173,157.114 91.971,191.371 92.796,202.541C94.717,228.524 110.093,232.435 131.398,232.435C152.703,232.435 171.8,226.942 170,199.868C169.257,188.693 150.783,157.114 129.478,157.114ZM129.478,165.345C135.928,165.345 141.818,169.584 146.861,174.715C155.247,183.246 161.413,194.788 161.787,200.414C162.309,208.261 160.854,213.728 157.397,217.317C151.614,223.321 141.727,224.204 131.398,224.204C121.122,224.204 112.372,223.822 106.834,218.404C103.386,215.032 101.582,209.737 101.005,201.934C100.596,196.391 105.827,184.23 113.427,175.182C117.907,169.85 123.247,165.345 129.478,165.345Z"/>
    </g>
    <g transform="matrix(-0.971908,0,0,0.971908,349.38,42.7734)">
        <path d="M129.478,157.114C150.783,157.114 169.257,188.693 170,199.868C171.8,226.942 152.703,232.435 131.398,232.435C110.093,232.435 94.717,228.524 92.796,202.541C91.971,191.371 108.173,157.114 129.478,157.114Z" style="fill:rgb(226,243,241);"/>
        <path d="M129.478,157.114C108.173,157.114 91.971,191.371 92.796,202.541C94.717,228.524 110.093,232.435 131.398,232.435C152.703,232.435 171.8,226.942 170,199.868C169.257,188.693 150.783,157.114 129.478,157.114ZM129.478,165.345C135.928,165.345 141.818,169.584 146.861,174.715C155.247,183.246 161.413,194.788 161.787,200.414C162.309,208.261 160.854,213.728 157.397,217.317C151.614,223.321 141.727,224.204 131.398,224.204C121.122,224.204 112.372,223.822 106.834,218.404C103.386,215.032 101.582,209.737 101.005,201.934C100.596,196.391 105.827,184.23 113.427,175.182C117.907,169.85 123.247,165.345 129.478,165.345Z"/>
    </g>
    <g transform="matrix(2.01313,5.43765e-16,5.43765e-16,-2.42704,-17.0017,572.421)">
        <path d="M39.583,181.666C43.766,203.283 59.79,208.59 85.11,208.59C122.51,208.59 128.733,190.381 130.637,181.666C134.945,177.416 137.21,172.631 137.21,167.763C137.21,151.98 113.865,139.167 85.11,139.167C56.355,139.167 33.01,151.98 33.01,167.763C33.01,172.631 35.275,177.416 39.583,181.666Z" style="fill:white;"/>
        <clipPath id="_clip1">
            <path d="M39.583,181.666C43.766,203.283 59.79,208.59 85.11,208.59C122.51,208.59 128.733,190.381 130.637,181.666C134.945,177.416 137.21,172.631 137.21,167.763C137.21,151.98 113.865,139.167 85.11,139.167C56.355,139.167 33.01,151.98 33.01,167.763C33.01,172.631 35.275,177.416 39.583,181.666Z"/>
        </clipPath>
        <g clip-path="url(#_clip1)">
            <g transform="matrix(0.875864,-1.087e-16,1.31049e-16,-1.36104,-73.0889,347.228)">
                <path d="M165.443,169.444C150.832,161.518 153.02,175.757 136.948,180.133C122.171,184.156 89.15,176.385 102.506,152.002C113.264,132.362 129.954,77.8 177.713,82.828C198.299,84.995 256.933,120.561 259.251,144.181C261.561,167.71 232.345,198.267 209.141,172.552C209.016,172.413 202.464,166.57 196.106,169.627C192.328,171.443 182.361,176.252 178.574,177.375C169.393,180.099 174.034,173.64 165.443,169.444Z" style="fill:rgb(226,243,241);"/>
                <clipPath id="_clip2">
                    <path d="M165.443,169.444C150.832,161.518 153.02,175.757 136.948,180.133C122.171,184.156 89.15,176.385 102.506,152.002C113.264,132.362 129.954,77.8 177.713,82.828C198.299,84.995 256.933,120.561 259.251,144.181C261.561,167.71 232.345,198.267 209.141,172.552C209.016,172.413 202.464,166.57 196.106,169.627C192.328,171.443 182.361,176.252 178.574,177.375C169.393,180.099 174.034,173.64 165.443,169.444Z"/>
                </clipPath>
                <g clip-path="url(#_clip2)">
                    <g transform="matrix(0.787311,-1.76392e-16,1.31963e-16,0.488555,84.0578,45.7753)">
                        <path d="M86.671,135.265C87.637,133.035 89.336,132.333 89.698,132.333C98.541,132.333 105.721,139.513 105.721,148.356C105.721,157.2 98.541,164.379 89.698,164.379C80.931,164.379 73.799,157.323 73.676,148.585C73.625,144.967 79.655,144.427 82.524,141.295C85.333,138.23 85.488,137.994 86.671,135.265Z"/>
                        <clipPath id="_clip3">
                            <path d="M86.671,135.265C87.637,133.035 89.336,132.333 89.698,132.333C98.541,132.333 105.721,139.513 105.721,148.356C105.721,157.2 98.541,164.379 89.698,164.379C80.931,164.379 73.799,157.323 73.676,148.585C73.625,144.967 79.655,144.427 82.524,141.295C85.333,138.23 85.488,137.994 86.671,135.265Z"/>
                        </clipPath>
                        <g clip-path="url(#_clip3)">
                            <g transform="matrix(0.720351,4.40144e-32,0,0.619641,5.02218,68.1478)">
                                <ellipse cx="117.548" cy="120.936" rx="13.289" ry="12.619" style="fill:white;"/>
                            </g>
                            <g transform="matrix(0.720351,4.40144e-32,0,0.619641,5.02218,68.1478)">
                                <ellipse cx="117.548" cy="120.936" rx="13.289" ry="12.619" style="fill:white;"/>
                                <clipPath id="_clip4">
                                    <ellipse cx="117.548" cy="120.936" rx="13.289" ry="12.619"/>
                                </clipPath>
                                <g clip-path="url(#_clip4)">
                                    <g transform="matrix(0.350429,0.280129,-0.768243,0.961037,141.651,7.02148)">
                                        <path d="M73.276,55.865C90.757,55.438 149.719,78.857 128.996,74.723C123.089,73.544 110.57,73.726 107.965,75.748C104.412,78.506 108.5,78.379 108.888,83.068C109.063,85.188 108.349,85.763 105.999,87.636C103.909,89.301 97.869,91.615 105.971,94.203C111.138,95.853 119.876,95.609 125.553,95.067C143.391,93.364 87.26,117.672 73.276,117.672C54.267,117.672 38.834,103.824 38.834,86.768C38.834,69.713 54.273,56.33 73.276,55.865Z"/>
                                    </g>
                                </g>
                            </g>
                        </g>
                    </g>
                    <g transform="matrix(-0.787311,1.76392e-16,1.31963e-16,0.488555,277.093,45.7753)">
                        <path d="M86.671,135.265C87.637,133.035 89.336,132.333 89.698,132.333C98.541,132.333 105.721,139.513 105.721,148.356C105.721,157.2 98.541,164.379 89.698,164.379C80.931,164.379 73.799,157.323 73.676,148.585C73.625,144.967 79.655,144.427 82.524,141.295C85.333,138.23 85.488,137.994 86.671,135.265Z"/>
                        <clipPath id="_clip5">
                            <path d="M86.671,135.265C87.637,133.035 89.336,132.333 89.698,132.333C98.541,132.333 105.721,139.513 105.721,148.356C105.721,157.2 98.541,164.379 89.698,164.379C80.931,164.379 73.799,157.323 73.676,148.585C73.625,144.967 79.655,144.427 82.524,141.295C85.333,138.23 85.488,137.994 86.671,135.265Z"/>
                        </clipPath>
                        <g clip-path="url(#_clip5)">
                            <g transform="matrix(0.720351,4.40144e-32,0,0.619641,5.02218,68.1478)">
                                <ellipse cx="117.548" cy="120.936" rx="13.289" ry="12.619" style="fill:white;"/>
                            </g>
                            <g transform="matrix(0.720351,4.40144e-32,0,0.619641,5.02218,68.1478)">
                                <ellipse cx="117.548" cy="120.936" rx="13.289" ry="12.619" style="fill:white;"/>
                                <clipPath id="_clip6">
                                    <ellipse cx="117.548" cy="120.936" rx="13.289" ry="12.619"/>
                                </clipPath>
                                <g clip-path="url(#_clip6)">
                                    <g transform="matrix(0.350429,0.280129,-0.768243,0.961037,141.651,7.02148)">
                                        <path d="M73.276,55.865C90.757,55.438 149.719,78.857 128.996,74.723C123.089,73.544 110.57,73.726 107.965,75.748C104.412,78.506 108.5,78.379 108.888,83.068C109.063,85.188 108.349,85.763 105.999,87.636C103.909,89.301 97.869,91.615 105.971,94.203C111.138,95.853 119.876,95.609 125.553,95.067C143.391,93.364 87.26,117.672 73.276,117.672C54.267,117.672 38.834,103.824 38.834,86.768C38.834,69.713 54.273,56.33 73.276,55.865Z"/>
                                    </g>
                                </g>
                            </g>
                        </g>
                    </g>
                </g>
            </g>
            <g transform="matrix(0.496738,1.11291e-16,1.11291e-16,-0.412024,2.394,248.33)">
                <path d="M166.518,160.07C197.902,160.07 225.323,174.312 225.323,205.696C225.323,221.68 199.843,234.657 168.46,234.657C137.076,234.657 111.597,221.68 111.597,205.696C111.597,174.312 135.135,160.07 166.518,160.07Z" style="fill:white;"/>
            </g>
            <g transform="matrix(0.496738,1.11291e-16,1.11291e-16,-0.412024,2.394,248.33)">
                <path d="M166.518,160.07C197.902,160.07 225.323,174.312 225.323,205.696C225.323,221.68 199.843,234.657 168.46,234.657C137.076,234.657 111.597,221.68 111.597,205.696C111.597,174.312 135.135,160.07 166.518,160.07Z" style="fill:white;"/>
            </g>
            <g transform="matrix(0.170771,3.82603e-17,3.82603e-17,-0.141648,37.5848,199.927)">
                <ellipse cx="117.548" cy="120.936" rx="13.289" ry="12.619" style="fill:white;"/>
            </g>
            <g transform="matrix(0.170771,3.82603e-17,3.82603e-17,-0.141648,89.9483,199.234)">
                <ellipse cx="117.548" cy="120.936" rx="13.289" ry="12.619" style="fill:white;"/>
            </g>
        </g>
        <path d="M35.839,183.073C37.759,192.131 41.742,198.471 47.402,202.883C55.988,209.578 68.7,211.886 85.11,211.886C105.343,211.886 117.065,206.772 124.064,200.668C130.786,194.805 133.219,187.897 134.354,183.101C138.869,178.381 141.183,173.106 141.183,167.763C141.183,160.553 137.035,153.837 129.814,148.432C119.721,140.877 103.471,135.871 85.11,135.871C66.749,135.871 50.499,140.877 40.406,148.432C33.185,153.837 29.036,160.553 29.036,167.763C29.036,173.096 31.342,178.36 35.839,183.073ZM39.583,181.666C35.275,177.416 33.01,172.631 33.01,167.763C33.01,151.98 56.355,139.167 85.11,139.167C113.865,139.167 137.21,151.98 137.21,167.763C137.21,172.631 134.945,177.416 130.637,181.666C128.733,190.381 122.51,208.59 85.11,208.59C59.79,208.59 43.766,203.283 39.583,181.666Z"/>
    </g>
    <g transform="matrix(1,0,0,1,17.8286,0)">
        <path d="M81.586,71.042C66.759,79.367 66.553,79.638 54.258,88.237C21.111,111.419 -10.729,161.656 -6.44,202.154C-2.766,236.853 55.953,221.63 44.623,171.258C42.631,162.403 41.643,156.715 41.643,150.411C41.643,139.269 43.955,132.926 59.733,118.511" style="fill:rgb(226,243,241);stroke:black;stroke-width:8px;"/>
    </g>
    <g transform="matrix(-1,0,0,1,286.377,0)">
        <path d="M81.586,71.042C66.759,79.367 66.553,79.638 54.258,88.237C21.111,111.419 -10.729,161.656 -6.44,202.154C-2.766,236.853 55.953,221.63 44.623,171.258C42.631,162.403 41.643,156.715 41.643,150.411C41.643,139.269 43.475,130.69 50.733,125.112" style="fill:rgb(226,243,241);stroke:black;stroke-width:8px;"/>
    </g>
    <g transform="matrix(-0.688338,7.38784e-17,-6.97524e-17,-1,336.719,307.897)">
        <path d="M222.732,140.821C227.845,135.094 239.143,133.011 245.605,136.977C251.991,140.897 256.31,148.96 261.799,148.506C267.39,148.044 271.17,138.813 281.068,134.766C285.382,133.003 294.108,133.12 298.749,138.57" style="fill:white;stroke:black;stroke-width:9.32px;"/>
    </g>
    <g transform="matrix(3.52574,4.84615e-16,-4.31779e-16,3.95718,-485.395,-458.801)">
        <path d="M188.409,156.22L175.717,156.22C175.074,155.479 174.735,154.638 174.735,153.782C174.735,151.091 178.019,148.906 182.063,148.906C186.107,148.906 189.391,151.091 189.391,153.782C189.391,154.638 189.052,155.479 188.409,156.22Z"/>
    </g>
    <g transform="matrix(1.38778e-17,0.396792,-1,3.08464e-17,299.015,55.3752)">
        <path d="M234.459,142.502L257.261,142.502" style="fill:white;stroke:black;stroke-width:10.52px;"/>
    </g>
    <g transform="matrix(1.38778e-17,0.396792,-1,3.08464e-17,299.25,50.4215)">
        <path d="M234.459,142.502C218.965,142.294 228.774,142.327 253.61,142.502L280.063,142.738" style="fill:white;stroke:black;stroke-width:10.52px;"/>
    </g>
</svg>
